<svg xmlns="http://www.w3.org/2000/svg" xmlns:xlink="http://www.w3.org/1999/xlink" xmlns:lucid="lucid" width="2002.02" height="1085"><g transform="translate(-19 -179)" lucid:page-tab-id="0_0"><path d="M0 0h2500v1500H0z" fill="#fff"/><path d="M20 541V188a8 8 0 0 1 8-8h39.8v361zM20 541h47.8v361H20zM67.8 1263H28a8 8 0 0 1-8-8V902h47.8z" stroke="#4c535d" stroke-width="2" fill="maroon"/><path d="M67.8 180h1944.22a8 8 0 0 1 8 8v353H67.8zM67.8 541h1952.22v361H67.8zM2020.02 902v353a8 8 0 0 1-8 8H67.8V902z" stroke="#4c535d" stroke-width="2" fill="#fff"/><use xlink:href="#a" transform="matrix(-1.8369701987210297e-16,-1,1,-1.8369701987210297e-16,20,541) translate(68.48177083333331 33.48676215277778)"/><use xlink:href="#b" transform="matrix(-1.8369701987210297e-16,-1,1,-1.8369701987210297e-16,20,541) translate(124.49088541666666 33.48676215277778)"/><use xlink:href="#c" transform="matrix(-1.8369701987210297e-16,-1,1,-1.8369701987210297e-16,20,541) translate(255.17881944444446 33.48676215277778)"/><use xlink:href="#d" transform="matrix(-1.8369701987210297e-16,-1,1,-1.8369701987210297e-16,20,902) translate(59.14691840277776 33.48676215277778)"/><use xlink:href="#e" transform="matrix(-1.8369701987210297e-16,-1,1,-1.8369701987210297e-16,20,902) translate(208.50455729166669 33.48676215277778)"/><use xlink:href="#a" transform="matrix(-1.8369701987210297e-16,-1,1,-1.8369701987210297e-16,20,1263) translate(49.8120659722222 33.48676215277778)"/><use xlink:href="#f" transform="matrix(-1.8369701987210297e-16,-1,1,-1.8369701987210297e-16,20,1263) translate(105.82118055555554 33.48676215277778)"/><use xlink:href="#g" transform="matrix(-1.8369701987210297e-16,-1,1,-1.8369701987210297e-16,20,1263) translate(273.84852430555554 33.48676215277778)"/><path d="M300.88 982.48h-58.85l-1.82.14-1.75.42-1.67.7-1.55.94-1.37 1.17-1.18 1.38-.94 1.54-.7 1.67-.4 1.76-.16 1.82V1022h-.95v-28.02l.16-1.93.44-1.9.75-1.8 1-1.68 1.28-1.5 1.5-1.26 1.66-1.02 1.8-.75 1.92-.45 1.93-.15h58.88zm154.6-.8l1.9.45 1.8.75 1.68 1.03 1.5 1.28 1.26 1.5 1.02 1.66.75 1.8.45 1.9.15 1.94v12.64h-.95v-12.6l-.14-1.82-.4-1.76-.7-1.67-.95-1.54-1.18-1.38-1.37-1.17-1.54-.95-1.67-.7-1.77-.4-1.82-.15h-58.34v-.96h58.38z" stroke="#3a414a" stroke-width=".05" fill="#3a414a"/><path d="M230.48 1022.5h-.95v-.5h.95z" fill="#3a414a"/><path stroke="#3a414a" stroke-width=".05" fill="#3a414a"/><path d="M465.53 1021.38l-4.64-14.26h9.26z" fill="#3a414a"/><path d="M465.53 1022.92l-5.3-16.28h10.58zm-4-15.33l4 12.25 3.98-12.26z" stroke="#3a414a" stroke-width=".05" fill="#3a414a"/><use xlink:href="#h" transform="matrix(1,0,0,1,300.875776798115,970.1695421006945) translate(0.005000000000002558 18.67447916666666)"/><use xlink:href="#i" transform="matrix(1,0,0,1,300.875776798115,970.1695421006945) translate(40.411575520833324 18.67447916666666)"/><path d="M466 1169.98l.14 1.82.43 1.76.7 1.67.93 1.54 1.18 1.38 1.37 1.17 1.54.95 1.66.7 1.76.4 1.82.16H524v.94h-46.5l-1.93-.15-1.9-.45-1.8-.75-1.68-1.03-1.5-1.28-1.27-1.5-1.02-1.66-.74-1.8-.46-1.9-.15-1.94v-8.64h.95zm244.48.04l-.15 1.93-.46 1.9-.75 1.8-1.02 1.68-1.28 1.5-1.48 1.26-1.67 1.02-1.8.75-1.92.45-1.93.15h-46v-.94h45.96l1.82-.15 1.76-.42 1.67-.7 1.54-.94 1.38-1.17 1.18-1.38.94-1.54.7-1.67.4-1.76.16-1.82V1145h.95z" stroke="#3a414a" stroke-width=".05" fill="#3a414a"/><path d="M470.16 1160.88h-9.27l4.63-14.26z" fill="#3a414a"/><path d="M470.8 1161.36h-10.56l5.3-16.28zm-9.26-.95h7.97l-3.97-12.25z" stroke="#3a414a" stroke-width=".05" fill="#3a414a"/><path d="M710.48 1145h-.95v-.5h.95z" fill="#3a414a"/><path stroke="#3a414a" stroke-width=".05" fill="#3a414a"/><use xlink:href="#j" transform="matrix(1,0,0,1,524.0035962301582,1170.7552083333333) translate(0.0049999999999954525 17.750000000000004)"/><use xlink:href="#k" transform="matrix(1,0,0,1,524.0035962301582,1170.7552083333333) translate(76.8175 17.750000000000004)"/><use xlink:href="#l" transform="matrix(1,0,0,1,524.0035962301582,1170.7552083333333) translate(102.42166666666667 17.750000000000004)"/><path d="M266.1 1023.5c33.15 0 60 26.86 60 60s-26.85 60-60 60h-72.2c-33.13 0-60-26.86-60-60s26.87-60 60-60z" stroke="#4c535d" stroke-width="2" fill="maroon"/><use xlink:href="#m" transform="matrix(1,0,0,1,145.90625,1035.5) translate(3.686848958333357 55.34950086805555)"/><use xlink:href="#n" transform="matrix(1,0,0,1,145.90625,1035.5) translate(71.03114149305556 55.34950086805555)"/><path d="M372.74 1032a8 8 0 0 1 8-8H550.3a8 8 0 0 1 8 8v104a8 8 0 0 1-8 8H380.75a8 8 0 0 1-8-8z" stroke="#4c535d" stroke-width="2" fill="maroon"/><use xlink:href="#o" transform="matrix(1,0,0,1,384.7402033730156,1036) translate(20.390136718750014 26.443250868055564)"/><use xlink:href="#p" transform="matrix(1,0,0,1,384.7402033730156,1036) translate(20.390136718750014 54.84950086805555)"/><use xlink:href="#q" transform="matrix(1,0,0,1,384.7402033730156,1036) translate(42.26036241319445 83.25575086805554)"/><path d="M598.3 1031.5a8 8 0 0 1 8-8h207.4a8 8 0 0 1 8 8v104a8 8 0 0 1-8 8H606.3a8 8 0 0 1-8-8z" stroke="#4c535d" stroke-width="2" fill="maroon"/><use xlink:href="#r" transform="matrix(1,0,0,1,610.3116319444437,1035.5) translate(16.786458333333343 41.010416666666664)"/><use xlink:href="#s" transform="matrix(1,0,0,1,610.3116319444437,1035.5) translate(93.59895833333334 41.010416666666664)"/><use xlink:href="#t" transform="matrix(1,0,0,1,610.3116319444437,1035.5) translate(23.1875 68.01041666666667)"/><use xlink:href="#u" transform="matrix(1,0,0,1,610.3116319444437,1035.5) translate(87.19791666666667 68.01041666666667)"/><use xlink:href="#v" transform="matrix(1,0,0,1,610.3116319444437,1035.5) translate(151.20833333333334 68.01041666666667)"/><path d="M845.1 1083.97h-21.9v-.94h21.9zm59.88 0h-6.02v-.94h6z" stroke="#3a414a" stroke-width=".05" fill="#3a414a"/><path d="M823.2 1083.97h-.5v-.94h.5z" fill="#3a414a"/><path stroke="#3a414a" stroke-width=".05" fill="#3a414a"/><path d="M919.74 1083.5l-14.26 4.63v-9.27z" fill="#3a414a"/><path d="M921.28 1083.5l-16.28 5.3v-10.6zm-15.33 3.98l12.25-3.98-12.25-3.98z" stroke="#3a414a" stroke-width=".05" fill="#3a414a"/><use xlink:href="#w" transform="matrix(1,0,0,1,845.0880764464281,1071.6695421006943) translate(0.004999999999999005 18.67447916666666)"/><path d="M1618.1 1028.2c33.13 0 60 26.86 60 60 0 33.13-26.87 60-60 60h-72.2c-33.15 0-60-26.87-60-60 0-33.14 26.85-60 60-60z" stroke="#4c535d" stroke-width="2" fill="#cfe4ff"/><use xlink:href="#x" transform="matrix(1,0,0,1,1497.8906944292478,1040.1979166666667) translate(17.1557074652778 55.34950086805555)"/><use xlink:href="#y" transform="matrix(1,0,0,1,1497.8906944292478,1040.1979166666667) translate(97.96885850694444 55.34950086805555)"/><path d="M922.36 1031.5a8 8 0 0 1 8-8h204a8 8 0 0 1 8 8v104a8 8 0 0 1-8 8h-204a8 8 0 0 1-8-8z" stroke="#4c535d" stroke-width="2" fill="maroon"/><use xlink:href="#z" transform="matrix(1,0,0,1,934.3590029761904,1035.5) translate(24.421278211805586 40.64637586805556)"/><use xlink:href="#A" transform="matrix(1,0,0,1,934.3590029761904,1035.5) translate(4.217990451388914 69.05262586805554)"/><use xlink:href="#B" transform="matrix(1,0,0,1,934.3590029761904,1035.5) translate(85.03114149305556 69.05262586805554)"/><path d="M1163.1 1083.97h-19.24v-.94h19.25zm73.42 0h-19.54v-.94h19.54z" stroke="#3a414a" stroke-width=".05" fill="#3a414a"/><path d="M1143.87 1083.97h-.5v-.94h.5z" fill="#3a414a"/><path stroke="#3a414a" stroke-width=".05" fill="#3a414a"/><path d="M1251.3 1083.5l-14.28 4.63v-9.27z" fill="#3a414a"/><path d="M1252.83 1083.5l-16.28 5.3v-10.6zm-15.33 3.98l12.25-3.98-12.25-3.98z" stroke="#3a414a" stroke-width=".05" fill="#3a414a"/><use xlink:href="#C" transform="matrix(1,0,0,1,1163.1045898513325,1071.6695421006943) translate(0.004999999999999005 18.67447916666666)"/><path d="M1253.9 1023.5c29.9 19.92 48.8 19.92 59.95 19.92 18 0 41.94-19.92 59.94-19.92 11.33 0 30.05 0 60.1 19.92v100.08c-30.05-20.04-48.77-20.04-60.1-20.04-18 0-41.95 20.04-59.95 20.04-11.16 0-30.06 0-59.94-20.04z" stroke="#4c535d" stroke-width="2" fill="maroon"/><use xlink:href="#D" transform="matrix(1,0,0,1,1265.90625,1035.5) translate(1.1875 41.510416666666664)"/><use xlink:href="#E" transform="matrix(1,0,0,1,1265.90625,1035.5) translate(116.40624999999999 41.510416666666664)"/><use xlink:href="#F" transform="matrix(1,0,0,1,1265.90625,1035.5) translate(11.859375 68.51041666666667)"/><path d="M1032.83 1169.98l.15 1.82.42 1.76.7 1.67.94 1.54 1.17 1.38 1.4 1.17 1.53.95 1.67.7 1.76.4 1.82.16h14.4v.94h-14.44l-1.93-.15-1.9-.45-1.8-.75-1.67-1.03-1.5-1.28-1.26-1.5-1.03-1.66-.75-1.8-.46-1.9-.16-1.94V1145h.95zm311.55.04l-.15 1.93-.46 1.9-.75 1.8-1.02 1.68-1.27 1.5-1.5 1.26-1.66 1.02-1.8.75-1.9.45-1.94.15h-4.3v-.94h4.26l1.8-.15 1.77-.42 1.67-.7 1.54-.94 1.38-1.17 1.17-1.38.94-1.54.7-1.67.42-1.76.13-1.82v-19.25h.95z" stroke="#3a414a" stroke-width=".05" fill="#3a414a"/><path d="M1032.83 1145h-.95v-.5h.95z" fill="#3a414a"/><path stroke="#3a414a" stroke-width=".05" fill="#3a414a"/><path d="M1348.54 1150.23h-9.27l4.64-14.26z" fill="#3a414a"/><path d="M1349.2 1150.7h-10.58l5.3-16.27zm-9.28-.94h7.97l-4-12.25z" stroke="#3a414a" stroke-width=".05" fill="#3a414a"/><use xlink:href="#G" transform="matrix(1,0,0,1,1058.7850858036918,1170.7552083333333) translate(0.0049999999999954525 17.750000000000004)"/><use xlink:href="#H" transform="matrix(1,0,0,1,1058.7850858036918,1170.7552083333333) translate(51.21333333333333 17.750000000000004)"/><use xlink:href="#I" transform="matrix(1,0,0,1,1058.7850858036918,1170.7552083333333) translate(128.02583333333334 17.750000000000004)"/><use xlink:href="#J" transform="matrix(1,0,0,1,1058.7850858036918,1170.7552083333333) translate(153.63 17.750000000000004)"/><use xlink:href="#K" transform="matrix(1,0,0,1,1058.7850858036918,1170.7552083333333) translate(204.83833333333334 17.750000000000004)"/><path d="M1693.9 1036.2a8 8 0 0 1 8-8h244a8 8 0 0 1 8 8v104a8 8 0 0 1-8 8h-244a8 8 0 0 1-8-8z" fill="none"/><path d="M1693.9 1148.2c5.53 0 10-4.48 10-10v-40c0-5.53 4.48-10 10-10-5.52 0-10-4.48-10-10v-40c0-5.53-4.47-10-10-10" stroke="#3a414a" stroke-width="2" fill="none"/><use xlink:href="#L" transform="matrix(1,0,0,1,1728.90625,1033.1979166666667) translate(0 62.344021267361114)"/><use xlink:href="#M" transform="matrix(1,0,0,1,1728.90625,1033.1979166666667) translate(134.6885850694444 62.344021267361114)"/><path d="M1343.9 1032v-32.8a12 12 0 0 1 12-12H1570a12 12 0 0 1 12 12v11.6" stroke="#3a414a" fill="none"/><path d="M1344.38 1032.3l-.95.4v-.7h.95z" stroke="#3a414a" stroke-width=".05" fill="#3a414a"/><path d="M1582 1025.58l-4.64-14.27h9.27z" stroke="#3a414a" fill="#3a414a"/><path d="M253.9 327.4c33.14 0 60 26.87 60 60 0 33.14-26.86 60-60 60h-72.2c-33.13 0-60-26.86-60-60 0-33.13 26.87-60 60-60z" stroke="#4c535d" stroke-width="2" fill="#cfe4ff"/><use xlink:href="#x" transform="matrix(1,0,0,1,133.70355902777783,339.40625) translate(17.1557074652778 55.34950086805555)"/><use xlink:href="#y" transform="matrix(1,0,0,1,133.70355902777783,339.40625) translate(97.96885850694444 55.34950086805555)"/><path d="M217.8 325.9v-26.5a12 12 0 0 1 12-12h302.1a12 12 0 0 1 12 12v20.63" stroke="#3a414a" fill="none"/><path d="M218.28 326.4h-.95v-.5h.95z" stroke="#3a414a" stroke-width=".05" fill="#3a414a"/><path d="M543.9 334.8l-4.63-14.27h9.27z" stroke="#3a414a" fill="#3a414a"/><path d="M453.9 327.4c29.9 19.93 48.8 19.93 59.95 19.93 18 0 41.94-19.92 59.94-19.92 11.33 0 30.05 0 60.1 19.93V447.4c-30.05-20.03-48.77-20.03-60.1-20.03-18 0-41.95 20.04-59.95 20.04-11.16 0-30.06 0-59.94-20.03z" stroke="#4c535d" stroke-width="2" fill="maroon"/><use xlink:href="#D" transform="matrix(1,0,0,1,465.90625,339.40625) translate(1.1875 41.510416666666664)"/><use xlink:href="#E" transform="matrix(1,0,0,1,465.90625,339.40625) translate(116.40624999999999 41.510416666666664)"/><use xlink:href="#F" transform="matrix(1,0,0,1,465.90625,339.40625) translate(11.859375 68.51041666666667)"/><path d="M544.38 475.4l.14 1.8.43 1.77.7 1.67.93 1.54 1.18 1.38 1.37 1.17 1.54.94 1.68.7 1.75.42 1.82.13h24.93v.95H555.9l-1.95-.15-1.9-.46-1.8-.75-1.68-1.02-1.5-1.27-1.26-1.5-1-1.66-.76-1.8-.46-1.9-.15-1.94v-36.67h.95zm352.88.03l-.15 1.93-.45 1.9-.75 1.8-1.02 1.68-1.27 1.5-1.48 1.26-1.67 1.02-1.8.75-1.9.46-1.94.15h-35.1v-.95h35.07l1.82-.14 1.75-.43 1.67-.7 1.54-.94 1.38-1.18 1.17-1.37.95-1.54.7-1.67.42-1.76.14-1.8v-10.6h.96z" stroke="#3a414a" stroke-width=".05" fill="#3a414a"/><path d="M544.38 438.77h-.95v-.3l.95-.42z" fill="#3a414a"/><path stroke="#3a414a" stroke-width=".05" fill="#3a414a"/><path d="M901.42 464.3h-9.27L896.8 450z" fill="#3a414a"/><path d="M902.08 464.76H891.5l5.3-16.27zm-9.27-.94h7.97l-3.98-12.26z" stroke="#3a414a" stroke-width=".05" fill="#3a414a"/><use xlink:href="#G" transform="matrix(1,0,0,1,580.8507028867843,476.1614583333333) translate(0.0049999999999954525 17.750000000000004)"/><use xlink:href="#H" transform="matrix(1,0,0,1,580.8507028867843,476.1614583333333) translate(51.21333333333333 17.750000000000004)"/><use xlink:href="#I" transform="matrix(1,0,0,1,580.8507028867843,476.1614583333333) translate(128.02583333333334 17.750000000000004)"/><use xlink:href="#J" transform="matrix(1,0,0,1,580.8507028867843,476.1614583333333) translate(153.63 17.750000000000004)"/><use xlink:href="#K" transform="matrix(1,0,0,1,580.8507028867843,476.1614583333333) translate(204.83833333333334 17.750000000000004)"/><path d="M380.72 356.9a.5.5 0 0 1 .5-.5.5.5 0 0 1 .5.5v59a.5.5 0 0 1-.5.5.5.5 0 0 1-.5-.5z" fill="none"/><use xlink:href="#N" transform="matrix(1,0,0,1,380.71577380952385,356.40625) translate(-39.90657552083332 18.68543836805555)"/><use xlink:href="#O" transform="matrix(1,0,0,1,380.71577380952385,356.40625) translate(-39.90657552083332 47.09168836805554)"/><use xlink:href="#P" transform="matrix(1,0,0,1,380.71577380952385,356.40625) translate(-33.1721462673611 75.49793836805553)"/><path d="M782.4 335.4a8 8 0 0 1 8-8h212.77a8 8 0 0 1 8 8v104a8 8 0 0 1-8 8H790.4a8 8 0 0 1-8-8z" stroke="#4c535d" stroke-width="2" fill="maroon"/><use xlink:href="#z" transform="matrix(1,0,0,1,794.4066220238093,339.40625) translate(28.421278211805586 40.64637586805556)"/><use xlink:href="#A" transform="matrix(1,0,0,1,794.4066220238093,339.40625) translate(8.217990451388914 69.05262586805554)"/><use xlink:href="#B" transform="matrix(1,0,0,1,794.4066220238093,339.40625) translate(89.03114149305556 69.05262586805554)"/><path d="M1074.98 387.88h-62.3v-.95h62.3zm80 0h-26.12v-.95h26.12z" stroke="#3a414a" stroke-width=".05" fill="#3a414a"/><path d="M1012.68 387.88h-.5v-.95h.5z" fill="#3a414a"/><path stroke="#3a414a" stroke-width=".05" fill="#3a414a"/><path d="M1169.74 387.4l-14.27 4.64v-9.27z" fill="#3a414a"/><path d="M1171.28 387.4l-16.28 5.3V382.1zm-15.33 4l12.25-4-12.25-3.97z" stroke="#3a414a" stroke-width=".05" fill="#3a414a"/><use xlink:href="#Q" transform="matrix(1,0,0,1,1074.98266753558,375.57579210069446) translate(0.004999999999999005 18.67447916666666)"/><path d="M1172.36 335.4a8 8 0 0 1 8-8h175.55a8 8 0 0 1 8 8v104a8 8 0 0 1-8 8h-175.54a8 8 0 0 1-8-8z" stroke="#4c535d" stroke-width="2" fill="maroon"/><use xlink:href="#r" transform="matrix(1,0,0,1,1184.3590029761904,339.40625) translate(0.7864583333333428 41.010416666666664)"/><use xlink:href="#s" transform="matrix(1,0,0,1,1184.3590029761904,339.40625) translate(77.59895833333334 41.010416666666664)"/><use xlink:href="#t" transform="matrix(1,0,0,1,1184.3590029761904,339.40625) translate(7.1875 68.01041666666667)"/><use xlink:href="#u" transform="matrix(1,0,0,1,1184.3590029761904,339.40625) translate(71.19791666666667 68.01041666666667)"/><use xlink:href="#v" transform="matrix(1,0,0,1,1184.3590029761904,339.40625) translate(135.20833333333334 68.01041666666667)"/><path d="M1077.52 286.88h-23.14l-1.82.14-1.76.43-1.67.7-1.54.93-1.4 1.18-1.16 1.37-.95 1.55-.7 1.67-.42 1.75-.14 1.82v86.95l-.03.38-.1.38-.14.37-.2.34-.26.3-.3.26-.35.2-.36.16-.4.1-.36.02-.07-.95.28-.02.24-.05.22-.1.2-.12.2-.16.16-.2.13-.2.1-.23.07-.24.02-.27V298.4l.14-1.95.45-1.9.74-1.8 1.03-1.68 1.27-1.5 1.5-1.26 1.66-1 1.8-.76 1.9-.46 1.94-.15h23.18z" stroke="#3a414a" stroke-width=".05" fill="#3a414a"/><path d="M1040.32 387.88h-.5v-.95h.5z" stroke="#3a414a" stroke-width=".05" fill="#3a414a"/><path d="M1092.3 286.4l-14.28 4.64v-9.27z" fill="#3a414a"/><path d="M1093.83 286.4l-16.28 5.3V281.1zm-15.33 4l12.25-4-12.25-3.97z" stroke="#3a414a" stroke-width=".05" fill="#3a414a"/><path d="M1082.36 246.9a.5.5 0 0 1 .5-.5h370.55a.5.5 0 0 1 .5.5.5.5 0 0 1-.5.5h-370.54a.5.5 0 0 1-.5-.5z" fill="none"/><use xlink:href="#R" transform="matrix(1,0,0,1,1082.3590029761904,246.40625) translate(6.770833333333314 17.750000000000004)"/><use xlink:href="#S" transform="matrix(1,0,0,1,1082.3590029761904,246.40625) translate(70.78124999999999 17.750000000000004)"/><use xlink:href="#T" transform="matrix(1,0,0,1,1082.3590029761904,246.40625) translate(198.80208333333331 17.750000000000004)"/><use xlink:href="#U" transform="matrix(1,0,0,1,1082.3590029761904,246.40625) translate(275.6145833333333 17.750000000000004)"/><use xlink:href="#V" transform="matrix(1,0,0,1,1082.3590029761904,246.40625) translate(339.625 17.750000000000004)"/><use xlink:href="#W" transform="matrix(1,0,0,1,1082.3590029761904,246.40625) translate(32.375 44.737500000000004)"/><use xlink:href="#X" transform="matrix(1,0,0,1,1082.3590029761904,246.40625) translate(109.1875 44.737500000000004)"/><use xlink:href="#Y" transform="matrix(1,0,0,1,1082.3590029761904,246.40625) translate(173.19791666666669 44.737500000000004)"/><use xlink:href="#Z" transform="matrix(1,0,0,1,1082.3590029761904,246.40625) translate(224.40625000000003 44.737500000000004)"/><path d="M1577.9 335.4a8 8 0 0 1 8-8h139.37a8 8 0 0 1 8 8v104a8 8 0 0 1-8 8H1585.9a8 8 0 0 1-8-8z" stroke="#4c535d" stroke-width="2" fill="maroon"/><use xlink:href="#o" transform="matrix(1,0,0,1,1589.8881303090898,339.40625) translate(5.390136718750014 26.443250868055564)"/><use xlink:href="#p" transform="matrix(1,0,0,1,1589.8881303090898,339.40625) translate(5.390136718750014 54.84950086805555)"/><use xlink:href="#q" transform="matrix(1,0,0,1,1589.8881303090898,339.40625) translate(27.26036241319445 83.25575086805554)"/><path d="M1602.7 287.88h-120.96l-1.7.13-1.6.4-1.54.63-1.4.87-1.26 1.07-1.07 1.25-.86 1.4-.63 1.53-.38 1.6-.14 1.7v66.46h-2.96v-66.55l.17-2.05.5-2.06.8-1.95 1.1-1.82 1.38-1.6 1.6-1.38 1.8-1.1 1.96-.8 2.07-.5 2.05-.17h121.08zm257.42-2.8l2.05.5 1.96.82 1.8 1.1 1.6 1.38 1.38 1.6 1.12 1.8.8 1.96.5 2.06.16 2.05v7.44h-2.95v-7.34l-.13-1.7-.4-1.6-.62-1.53-.86-1.4-1.07-1.26-1.26-1.08-1.42-.87-1.52-.63-1.6-.38-1.7-.14h-160.98v-2.95h161.1z" stroke="#3a414a" stroke-width=".05" fill="#3a414a"/><path d="M1471.15 366.7l-1.47-.3h-.32l-1.15.3v-1.83h2.95z" fill="#3a414a"/><path stroke="#3a414a" stroke-width=".05" fill="#3a414a"/><path d="M1870 321.55l-4.63-14.26h9.27z" fill="#3a414a"/><path d="M1870 326.32l-6.66-20.5h13.33zm-2.6-17.56l2.6 8.02 2.6-8.02z" stroke="#3a414a" stroke-width=".05" fill="#3a414a"/><use xlink:href="#aa" transform="matrix(1,0,0,1,1602.7027296905567,274.57579210069446) translate(0.005000000000002558 18.67447916666666)"/><use xlink:href="#ab" transform="matrix(1,0,0,1,1602.7027296905567,274.57579210069446) translate(40.411575520833324 18.67447916666666)"/><path d="M1373.9 447.2a8 8 0 0 1 8-8h175.55a8 8 0 0 1 8 8v26.82a8 8 0 0 1-8 8H1381.9a8 8 0 0 1-8-8z" fill="#fff" fill-opacity="0"/><use xlink:href="#ac" transform="matrix(1,0,0,1,1378.90625,444.203125) translate(39.658311631944436 13.044053819444443)"/><use xlink:href="#ad" transform="matrix(1,0,0,1,1378.90625,444.203125) translate(95.66742621527777 13.044053819444443)"/><use xlink:href="#ae" transform="matrix(1,0,0,1,1378.90625,444.203125) translate(44.325737847222214 29.450303819444446)"/><path d="M1906.1 327.4c33.15 0 60 26.87 60 60 0 33.14-26.85 60-60 60h-72.2c-33.13 0-60-26.86-60-60 0-33.13 26.87-60 60-60z" stroke="#4c535d" stroke-width="2" fill="maroon"/><use xlink:href="#m" transform="matrix(1,0,0,1,1785.90625,339.40625) translate(3.686848958333357 55.34950086805555)"/><use xlink:href="#n" transform="matrix(1,0,0,1,1785.90625,339.40625) translate(71.03114149305556 55.34950086805555)"/><path d="M1477.88 374.6c0 4.53-3.67 8.2-8.2 8.2-4.53 0-8.2-3.67-8.2-8.2 0-4.53 3.67-8.2 8.2-8.2 4.53 0 8.2 3.68 8.2 8.2z" stroke="#000" stroke-opacity="0" stroke-width="2" fill="maroon"/><path d="M1365.4 387.4h41.4a6.4 6.4 0 0 0 6.4-6.4 6.4 6.4 0 0 1 6.4-6.4h41.38" stroke="#3a414a" fill="none"/><path d="M1365.42 387.88h-.5v-.95h.5zM1461.48 374.6v.32l.05.16h-.56v-.95h.6z" stroke="#3a414a" stroke-width=".05" fill="#3a414a"/><path d="M1478.38 374.6h5.07m5.07 0h1m5.1 0h10.13m5.07 0h1.02m5.07 0h5.08a6.4 6.4 0 0 1 6.4 6.4 6.4 6.4 0 0 0 6.4 6.4h6.37m6.36 0h1.28m6.36 0h6.36" stroke="#3a414a" fill="none"/><path d="M1478.4 375.08h-.62l.1-.48v-.32l-.05-.15h.56z" stroke="#3a414a" stroke-width=".05" fill="#3a414a"/><path d="M1575.27 387.4l-14.27 4.64v-9.27z" stroke="#3a414a" fill="#3a414a"/><path d="M1469.68 383.3v55.9" stroke="#3a414a" fill="none"/><path d="M1469.68 382.8h.32l.15-.05v.56h-.95v-.6z" stroke="#3a414a" stroke-width=".05" fill="#3a414a"/><path d="M1484.68 438.7h-30" stroke="#3a414a" fill="none"/><path d="M640.36 387.88h-4.95v-.95h4.96zm5.93 0h-1v-.95h1zm14.84 0h-9.9v-.95h9.9zm5.94 0h-1v-.95h1zm14.14 0h-9.2v-.95h9.2zm69 0h-1v-.95h1zm14.85 0h-9.9v-.95h9.9zm5.94 0h-.98v-.95h1zm9.9 0h-4.94v-.95h4.95zm-36.62 0h-9.2v-.95h9.2z" stroke="#3a414a" stroke-width=".05" fill="#3a414a"/><path d="M635.42 387.88h-.5v-.95h.5z" fill="#3a414a"/><path stroke="#3a414a" stroke-width=".05" fill="#3a414a"/><path d="M781.4 387.88h-.5v-.95h.5z" fill="#3a414a"/><path stroke="#3a414a" stroke-width=".05" fill="#3a414a"/><g><use xlink:href="#C" transform="matrix(1,0,0,1,681.2187439980155,375.57579210069446) translate(0.004999999999999005 18.67447916666666)"/></g><path d="M580 352.6a8 8 0 0 1 8-8h224a8 8 0 0 1 8 8v44a8 8 0 0 1-8 8H588a8 8 0 0 1-8-8z" fill="none"/><path d="M356.18 691.5c33.13 0 60 26.86 60 60s-26.87 60-60 60h-72.2c-33.14 0-60-26.86-60-60s26.86-60 60-60z" stroke="#4c535d" stroke-width="2" fill="#cfe4ff"/><g><use xlink:href="#af" transform="matrix(1,0,0,1,235.97428482297866,703.5) translate(37.35899522569446 26.943250868055564)"/><use xlink:href="#ag" transform="matrix(1,0,0,1,235.97428482297866,703.5) translate(50.8278537326389 55.34950086805555)"/><use xlink:href="#ah" transform="matrix(1,0,0,1,235.97428482297866,703.5) translate(44.09342447916668 83.75575086805554)"/></g><path d="M401.82 639.48H332.1l-1.83.14-1.75.42-1.68.7-1.54.94-1.37 1.17-1.18 1.38-.94 1.54-.68 1.67-.43 1.76-.15 1.82V690h-.95v-39.02l.15-1.93.46-1.9.76-1.8 1.02-1.68 1.27-1.5 1.5-1.26 1.66-1.02 1.82-.75 1.9-.45 1.94-.15h69.76zm112.1-.8l1.9.45 1.82.75 1.67 1.03 1.5 1.28 1.27 1.5 1.02 1.66.74 1.8.46 1.9.15 1.94v23.14h-.95v-23.1l-.14-1.82-.43-1.76-.7-1.67-.93-1.54-1.18-1.38-1.37-1.17-1.54-.95-1.67-.7-1.75-.4-1.82-.15h-69.73v-.96H512z" stroke="#3a414a" stroke-width=".05" fill="#3a414a"/><path d="M320.55 690.5h-.95v-.5h.95z" fill="#3a414a"/><path stroke="#3a414a" stroke-width=".05" fill="#3a414a"/><path d="M523.97 688.88l-4.63-14.26h9.27z" fill="#3a414a"/><path d="M523.97 690.42l-5.3-16.28h10.6zM520 675.1l3.97 12.25 4-12.26z" stroke="#3a414a" stroke-width=".05" fill="#3a414a"/><g><use xlink:href="#ai" transform="matrix(1,0,0,1,401.8216948056175,627.1695421006945) translate(0.004999999999999005 18.67447916666666)"/></g><path d="M443.97 699.5a8 8 0 0 1 8-8h144a8 8 0 0 1 8 8v104a8 8 0 0 1-8 8h-144a8 8 0 0 1-8-8z" stroke="#4c535d" stroke-width="2" fill="maroon"/><g><use xlink:href="#aj" transform="matrix(1,0,0,1,455.9742848229787,703.5) translate(39.99544270833333 57.99435763888889)"/></g><path d="M759 699.5a8 8 0 0 1 8-8h513.94a8 8 0 0 1 8 8v104a8 8 0 0 1-8 8H767a8 8 0 0 1-8-8z" stroke="#4c535d" stroke-width="2" fill="maroon" fill-opacity=".43"/><g><use xlink:href="#ak" transform="matrix(1,0,0,1,771.008302234468,703.5) translate(62.969075520833286 58.164388020833336)"/><use xlink:href="#al" transform="matrix(1,0,0,1,771.008302234468,703.5) translate(142.98209635416663 58.164388020833336)"/><use xlink:href="#am" transform="matrix(1,0,0,1,771.008302234468,703.5) translate(303.00813802083337 58.164388020833336)"/></g><path d="M1291.76 751.5h134.83" stroke="#3a414a" fill="none"/><path d="M1291.77 751.98h-1.83V751h1.83z" stroke="#3a414a" stroke-width=".05" fill="#3a414a"/><path d="M1441.36 751.5l-14.27 4.63v-9.26z" stroke="#3a414a" fill="#3a414a"/><path d="M605.47 751.5h136.15" stroke="#3a414a" fill="none"/><path d="M605.5 751.98h-.53V751h.52z" stroke="#3a414a" stroke-width=".05" fill="#3a414a"/><path d="M756.4 751.5l-14.28 4.63v-9.26z" stroke="#3a414a" fill="#3a414a"/><path d="M1443.97 699.5a8 8 0 0 1 8-8h144a8 8 0 0 1 8 8v104a8 8 0 0 1-8 8h-144a8 8 0 0 1-8-8z" stroke="#4c535d" stroke-width="2" fill="maroon"/><g><use xlink:href="#aj" transform="matrix(1,0,0,1,1455.9742848229787,703.5) translate(39.99544270833333 57.99435763888889)"/></g><path d="M1796.18 691.5c33.13 0 60 26.86 60 60s-26.87 60-60 60h-72.2c-33.14 0-60-26.86-60-60s26.86-60 60-60z" stroke="#4c535d" stroke-width="2" fill="#cfe4ff"/><g><use xlink:href="#af" transform="matrix(1,0,0,1,1675.974284822979,703.5) translate(37.35899522569446 26.943250868055564)"/><use xlink:href="#ag" transform="matrix(1,0,0,1,1675.974284822979,703.5) translate(50.8278537326389 55.34950086805555)"/><use xlink:href="#ah" transform="matrix(1,0,0,1,1675.974284822979,703.5) translate(44.09342447916668 83.75575086805554)"/></g><path d="M203.84 751.5c0 22.1-17.9 40-40 40s-40-17.9-40-40 17.9-40 40-40 40 17.9 40 40z" stroke="#4c535d" stroke-width="2" fill="maroon"/><g><use xlink:href="#an" transform="matrix(1,0,0,1,128.8382151770213,716.5) translate(10.99609375 47.20703125)"/></g><path d="M205.34 751.5h17.13" stroke="#3a414a" fill="none"/><path d="M205.35 751.98h-.54l.04-.47-.02-.48h.53zM222.97 751.5l.02.48h-.54V751h.53z" stroke="#3a414a" stroke-width=".05" fill="#3a414a"/><path d="M1963.97 751.5c0 22.1-17.9 40-40 40s-40-17.9-40-40 17.9-40 40-40 40 17.9 40 40z" stroke="#4c535d" stroke-width="2" fill="maroon"/><g><use xlink:href="#ao" transform="matrix(1,0,0,1,1888.9742848229787,716.5) translate(10.99609375 47.20703125)"/></g><path d="M1882.47 751.5h-24.8" stroke="#3a414a" fill="none"/><path d="M1882.97 751.5l.02.48h-.54V751h.54zM1857.7 751.98h-.54l.02-.48-.02-.48h.53z" stroke="#3a414a" stroke-width=".05" fill="#3a414a"/><path d="M1605.47 751.5h41.12" stroke="#3a414a" fill="none"/><path d="M1605.5 751.98h-.53V751h.52z" stroke="#3a414a" stroke-width=".05" fill="#3a414a"/><path d="M1661.36 751.5l-14.27 4.63v-9.26z" stroke="#3a414a" fill="#3a414a"/><path d="M1621.82 639.48H1536l-1.83.14-1.76.42-1.66.7-1.54.94-1.37 1.17-1.18 1.38-.94 1.54-.68 1.67-.43 1.76-.15 1.82V690h-.95v-39.02l.15-1.93.46-1.9.76-1.8 1.02-1.68 1.27-1.5 1.5-1.26 1.66-1.02 1.82-.75 1.9-.45 1.94-.15h85.86zm128.2-.8l1.9.45 1.82.75 1.67 1.03 1.5 1.28 1.27 1.5 1.02 1.66.74 1.8.46 1.9.15 1.94v23.14h-.95v-23.1l-.14-1.82-.42-1.76-.7-1.67-.94-1.54-1.18-1.38-1.37-1.17-1.54-.95-1.66-.7-1.76-.4-1.82-.15h-85.83v-.96h85.86z" stroke="#3a414a" stroke-width=".05" fill="#3a414a"/><path d="M1524.45 690.5h-.95v-.5h.95z" fill="#3a414a"/><path stroke="#3a414a" stroke-width=".05" fill="#3a414a"/><path d="M1760.08 688.88l-4.64-14.26h9.27z" fill="#3a414a"/><path d="M1760.08 690.42l-5.3-16.28h10.6zm-4-15.33l4 12.25 3.98-12.26z" stroke="#3a414a" stroke-width=".05" fill="#3a414a"/><g><use xlink:href="#ai" transform="matrix(1,0,0,1,1621.821644757452,627.1695421006945) translate(0.004999999999999005 18.67447916666666)"/></g><path d="M759 639.5a8 8 0 0 1 8-8h513.94a8 8 0 0 1 8 8v44a8 8 0 0 1-8 8H767a8 8 0 0 1-8-8z" fill="none"/><g><use xlink:href="#ap" transform="matrix(1,0,0,1,759.008302234468,631.5) translate(130.3114149305556 36.84950086805556)"/><use xlink:href="#aq" transform="matrix(1,0,0,1,759.008302234468,631.5) translate(265 36.84950086805556)"/><use xlink:href="#ar" transform="matrix(1,0,0,1,759.008302234468,631.5) translate(318.87543402777777 36.84950086805556)"/></g><defs><path fill="#fff" d="M655-135c108 0 195-33 260-74v-336H622v-160h479v572C981-54 839 20 639 20c-388 0-526-306-526-701 0-406 129-689 529-689 261 0 392 137 461 331l-171 56c-47-131-122-231-288-231-281 0-330 245-330 533 0 179 28 314 84 407s142 139 257 139" id="as"/><path fill="#fff" d="M614-1226c-167 1-283 53-283 213 0 183 186 193 334 234 230 63 463 120 463 409 0 286-219 387-518 390C309 23 131-98 79-338l185-37c34 165 149 248 351 246 184-2 324-58 324-238 0-203-207-221-372-266-210-57-422-111-422-377 0-267 201-356 470-360 279-5 430 101 480 324l-188 33c-28-141-121-215-293-213" id="at"/><g id="a"><use transform="matrix(0.015190972222222224,0,0,0.015190972222222224,0,0)" xlink:href="#as"/><use transform="matrix(0.015190972222222224,0,0,0.015190972222222224,18.669704861111114,0)" xlink:href="#at"/></g><path fill="#fff" d="M604-135c236 0 291-142 291-376v-838h190v859c5 340-142 510-480 510-326 0-463-164-463-492v-877h191v851c-3 222 46 363 271 363" id="au"/><path fill="#fff" d="M622-1349c296 4 497 117 497 404 0 282-193 424-485 431H353V0H162v-1349h460zm-15 684c195-3 320-88 320-277 0-184-129-255-328-254H353v531h254" id="av"/><path fill="#fff" d="M237 0v-1349h191v1193h672V0H237" id="aw"/><path fill="#fff" d="M202-1349h823v156H709v1037h316V0H202v-156h316v-1037H202v-156" id="ax"/><path fill="#fff" d="M912-211c-10-84-18-177-18-274v-864h172V0H836L316-1130c7 79 16 167 16 254V0H162v-1349h222" id="ay"/><path fill="#fff" d="M1003 0L516-638 353-469V0H162v-1349h191v673l572-673h225L646-777 1227 0h-224" id="az"/><g id="b"><use transform="matrix(0.015190972222222224,0,0,0.015190972222222224,0,0)" xlink:href="#au"/><use transform="matrix(0.015190972222222224,0,0,0.015190972222222224,18.669704861111114,0)" xlink:href="#av"/><use transform="matrix(0.015190972222222224,0,0,0.015190972222222224,37.33940972222223,0)" xlink:href="#aw"/><use transform="matrix(0.015190972222222224,0,0,0.015190972222222224,56.00911458333334,0)" xlink:href="#ax"/><use transform="matrix(0.015190972222222224,0,0,0.015190972222222224,74.67881944444446,0)" xlink:href="#ay"/><use transform="matrix(0.015190972222222224,0,0,0.015190972222222224,93.34852430555557,0)" xlink:href="#az"/></g><path fill="#fff" d="M709-1193V0H519v-1193H76v-156h1076v156H709" id="aA"/><path fill="#fff" d="M614-836l333-513h205L717-705 1193 0H988L614-573 241 0H36l476-705-435-644h205" id="aB"/><g id="c"><use transform="matrix(0.015190972222222224,0,0,0.015190972222222224,0,0)" xlink:href="#aA"/><use transform="matrix(0.015190972222222224,0,0,0.015190972222222224,18.669704861111114,0)" xlink:href="#aB"/></g><path fill="#fff" d="M650-1214c-281 0-336 244-336 533 0 295 60 546 347 546 188 0 263-142 322-282l159 65C1058-155 935 20 659 20c-401 0-546-295-546-701 0-407 135-689 536-689 264 0 391 146 466 335l-168 65c-47-129-127-244-297-244" id="aC"/><path fill="#fff" d="M802-711c201 25 350 118 350 331C1152-95 921 0 634 0H162v-1349c401 9 908-74 908 327 0 184-111 275-268 311zm-224-69c174-2 300-51 300-218 0-163-124-198-302-198H353v416h225zM353-153c281-2 612 44 606-244-5-271-329-233-606-234v478" id="aD"/><path fill="#fff" d="M162 0v-1349h919v156H353v422h668v154H353v461h769V0H162" id="aE"/><path fill="#fff" d="M1034 0L896-382H333L196 0H0l510-1349h217L1228 0h-194zM847-531c-77-225-157-447-231-674-69 231-154 451-232 674h463" id="aF"/><g id="d"><use transform="matrix(0.015190972222222224,0,0,0.015190972222222224,0,0)" xlink:href="#aC"/><use transform="matrix(0.015190972222222224,0,0,0.015190972222222224,18.669704861111114,0)" xlink:href="#au"/><use transform="matrix(0.015190972222222224,0,0,0.015190972222222224,37.33940972222223,0)" xlink:href="#aD"/><use transform="matrix(0.015190972222222224,0,0,0.015190972222222224,56.00911458333334,0)" xlink:href="#aE"/><use transform="matrix(0.015190972222222224,0,0,0.015190972222222224,74.67881944444446,0)" xlink:href="#at"/><use transform="matrix(0.015190972222222224,0,0,0.015190972222222224,93.34852430555557,0)" xlink:href="#aF"/><use transform="matrix(0.015190972222222224,0,0,0.015190972222222224,112.01822916666669,0)" xlink:href="#aA"/></g><path fill="#fff" d="M1121-976c0 225-142 341-344 379L1177 0H957L591-575H353V0H162v-1349h482c281 3 477 100 477 373zM633-726c181-1 296-73 296-247 0-149-101-223-304-223H353v470h280" id="aG"/><path fill="#fff" d="M114 20l821-1504h178L296 20H114" id="aH"/><g id="e"><use transform="matrix(0.015190972222222224,0,0,0.015190972222222224,0,0)" xlink:href="#aG"/><use transform="matrix(0.015190972222222224,0,0,0.015190972222222224,18.669704861111114,0)" xlink:href="#aB"/><use transform="matrix(0.015190972222222224,0,0,0.015190972222222224,37.33940972222223,0)" xlink:href="#aH"/><use transform="matrix(0.015190972222222224,0,0,0.015190972222222224,56.00911458333334,0)" xlink:href="#aA"/><use transform="matrix(0.015190972222222224,0,0,0.015190972222222224,74.67881944444446,0)" xlink:href="#aB"/></g><path fill="#fff" d="M473-1349c438-1 655 221 652 661C1122-268 945-8 532 0H162v-1349h311zm42 1193c308-4 416-205 418-532 2-330-131-509-459-505H353v1037h162" id="aI"/><path fill="#fff" d="M102-681c0-398 126-689 513-689 165 0 291 58 379 174s132 287 132 515c-1 318-88 554-298 657-123 61-317 58-438-3-206-104-288-341-288-654zm749 406c94-160 97-656-5-807-57-85-130-132-231-132-104 0-178 47-234 132-101 153-99 655 1 809 57 89 130 138 232 138 109 0 184-49 237-140" id="aJ"/><path fill="#fff" d="M1018 0H810c-67-251-137-496-194-756C558-495 487-250 419 0H211L0-1349h189c48 393 110 772 142 1181 58-262 128-512 197-763h175c69 251 139 500 197 763 37-402 92-789 139-1181h189" id="aK"/><g id="f"><use transform="matrix(0.015190972222222224,0,0,0.015190972222222224,0,0)" xlink:href="#aI"/><use transform="matrix(0.015190972222222224,0,0,0.015190972222222224,18.669704861111114,0)" xlink:href="#aJ"/><use transform="matrix(0.015190972222222224,0,0,0.015190972222222224,37.33940972222223,0)" xlink:href="#aK"/><use transform="matrix(0.015190972222222224,0,0,0.015190972222222224,56.00911458333334,0)" xlink:href="#ay"/><use transform="matrix(0.015190972222222224,0,0,0.015190972222222224,74.67881944444446,0)" xlink:href="#aw"/><use transform="matrix(0.015190972222222224,0,0,0.015190972222222224,93.34852430555557,0)" xlink:href="#ax"/><use transform="matrix(0.015190972222222224,0,0,0.015190972222222224,112.01822916666669,0)" xlink:href="#ay"/><use transform="matrix(0.015190972222222224,0,0,0.015190972222222224,130.6879340277778,0)" xlink:href="#az"/></g><g id="g"><use transform="matrix(0.015190972222222224,0,0,0.015190972222222224,0,0)" xlink:href="#aG"/><use transform="matrix(0.015190972222222224,0,0,0.015190972222222224,18.669704861111114,0)" xlink:href="#aB"/></g><path d="M1121-976c0 225-142 341-344 379L1177 0H957L591-575H353V0H162v-1349h482c281 3 477 100 477 373zM633-726c181-1 296-73 296-247 0-149-101-223-304-223H353v470h280" id="aL"/><path d="M614-836l333-513h205L717-705 1193 0H988L614-573 241 0H36l476-705-435-644h205" id="aM"/><g id="h"><use transform="matrix(0.010959201388888886,0,0,0.010959201388888886,0,0)" xlink:href="#aL"/><use transform="matrix(0.010959201388888886,0,0,0.010959201388888886,13.468858506944441,0)" xlink:href="#aM"/></g><path d="M622-1349c296 4 497 117 497 404 0 282-193 424-485 431H353V0H162v-1349h460zm-15 684c195-3 320-88 320-277 0-184-129-255-328-254H353v531h254" id="aN"/><path d="M1034 0L896-382H333L196 0H0l510-1349h217L1228 0h-194zM847-531c-77-225-157-447-231-674-69 231-154 451-232 674h463" id="aO"/><path d="M709-1193V0H519v-1193H76v-156h1076v156H709" id="aP"/><path d="M875 0v-623H353V0H162v-1349h191v566h522v-566h191V0H875" id="aQ"/><g id="i"><use transform="matrix(0.010959201388888886,0,0,0.010959201388888886,0,0)" xlink:href="#aN"/><use transform="matrix(0.010959201388888886,0,0,0.010959201388888886,13.468858506944441,0)" xlink:href="#aO"/><use transform="matrix(0.010959201388888886,0,0,0.010959201388888886,26.937717013888882,0)" xlink:href="#aP"/><use transform="matrix(0.010959201388888886,0,0,0.010959201388888886,40.40657552083332,0)" xlink:href="#aQ"/></g><path d="M102-681c0-398 126-689 513-689 165 0 291 58 379 174s132 287 132 515c-1 318-88 554-298 657-123 61-317 58-438-3-206-104-288-341-288-654zm749 406c94-160 97-656-5-807-57-85-130-132-231-132-104 0-178 47-234 132-101 153-99 655 1 809 57 89 130 138 232 138 109 0 184-49 237-140" id="aR"/><path d="M1018 0H810c-67-251-137-496-194-756C558-495 487-250 419 0H211L0-1349h189c48 393 110 772 142 1181 58-262 128-512 197-763h175c69 251 139 500 197 763 37-402 92-789 139-1181h189" id="aS"/><path d="M162 0v-1349h919v156H353v422h668v154H353v461h769V0H162" id="aT"/><g id="j"><use transform="matrix(0.010416666666666668,0,0,0.010416666666666668,0,0)" xlink:href="#aN"/><use transform="matrix(0.010416666666666668,0,0,0.010416666666666668,12.802083333333334,0)" xlink:href="#aR"/><use transform="matrix(0.010416666666666668,0,0,0.010416666666666668,25.604166666666668,0)" xlink:href="#aS"/><use transform="matrix(0.010416666666666668,0,0,0.010416666666666668,38.40625,0)" xlink:href="#aT"/><use transform="matrix(0.010416666666666668,0,0,0.010416666666666668,51.208333333333336,0)" xlink:href="#aL"/></g><path d="M114 20l821-1504h178L296 20H114" id="aU"/><use transform="matrix(0.010416666666666668,0,0,0.010416666666666668,0,0)" xlink:href="#aU" id="k"/><path d="M385-1193v494h676v158H385V0H194v-1349h891v156H385" id="aV"/><g id="l"><use transform="matrix(0.010416666666666668,0,0,0.010416666666666668,0,0)" xlink:href="#aL"/><use transform="matrix(0.010416666666666668,0,0,0.010416666666666668,12.802083333333334,0)" xlink:href="#aV"/></g><path fill="#fff" d="M761-556V0H467v-556L3-1349h309l300 566 304-566h309" id="aW"/><path fill="#fff" d="M1229 0H935l-92-330H387L295 0H0l443-1349h344zM615-1167c-46 213-110 412-166 615h332c-56-204-119-401-166-615" id="aX"/><path fill="#fff" d="M650-216c90 0 157-35 208-74v-235H584v-218h544v558C1004-84 858 20 635 20 235 20 80-276 80-681c0-416 146-689 558-689 277 0 398 160 462 375l-274 54c-31-108-73-197-185-197-231 0-262 217-262 457 0 149 22 263 67 344s113 121 204 121" id="aY"/><path fill="#fff" d="M157-1349h916v228H762v893h311V0H157v-228h311v-893H157v-228" id="aZ"/><g id="m"><use transform="matrix(0.010959201388888886,0,0,0.010959201388888886,0,0)" xlink:href="#aW"/><use transform="matrix(0.010959201388888886,0,0,0.010959201388888886,13.468858506944441,0)" xlink:href="#aX"/><use transform="matrix(0.010959201388888886,0,0,0.010959201388888886,26.937717013888882,0)" xlink:href="#aY"/><use transform="matrix(0.010959201388888886,0,0,0.010959201388888886,40.40657552083332,0)" xlink:href="#aZ"/></g><path fill="#fff" d="M865-312c-44-312-23-686-28-1037h257V0H748L364-1010c44 304 24 668 28 1010H135v-1349h337" id="ba"/><path fill="#fff" d="M762-1121V0H467v-1121H61v-228h1107v228H762" id="bb"/><path fill="#fff" d="M137 0v-1349h968v228H432v324h612v228H432v341h714V0H137" id="bc"/><g id="n"><use transform="matrix(0.010959201388888886,0,0,0.010959201388888886,0,0)" xlink:href="#aX"/><use transform="matrix(0.010959201388888886,0,0,0.010959201388888886,13.468858506944441,0)" xlink:href="#ba"/><use transform="matrix(0.010959201388888886,0,0,0.010959201388888886,26.937717013888882,0)" xlink:href="#bb"/><use transform="matrix(0.010959201388888886,0,0,0.010959201388888886,40.40657552083332,0)" xlink:href="#bc"/><use transform="matrix(0.010959201388888886,0,0,0.010959201388888886,53.875434027777764,0)" xlink:href="#ba"/><use transform="matrix(0.010959201388888886,0,0,0.010959201388888886,67.3442925347222,0)" xlink:href="#ba"/><use transform="matrix(0.010959201388888886,0,0,0.010959201388888886,80.81315104166664,0)" xlink:href="#aX"/></g><path fill="#fff" d="M211 0v-1349h295v1121h616V0H211" id="bd"/><path fill="#fff" d="M616-1102c361 0 521 202 521 560 0 354-171 562-527 562C259 20 92-192 92-542c0-351 169-560 524-560zm-9 930c200-2 236-165 236-370 0-199-27-367-223-367-195 0-233 146-233 367 0 129 18 223 55 282s92 88 165 88" id="be"/><path fill="#fff" d="M1028 0H784c-56-191-119-378-170-573C562-377 495-191 437 0H194L11-1082h228c32 239 67 472 95 714 4 40 7 80 7 119 53-195 119-378 177-568h193c56 190 120 371 169 568-1-79 11-158 21-226l91-607h226" id="bf"/><path fill="#fff" d="M324-409v-244h580v244H324" id="bg"/><path fill="#fff" d="M794-190h353V0H118v-190h395v-702H223v-190h571v892zM513-1277v-207h281v207H513" id="bh"/><path fill="#fff" d="M622-916c-112 2-200 14-200 111 0 90 89 101 168 121 234 58 514 77 514 368C1104-4 751 54 434 5 267-21 161-112 121-270l247-37c24 111 113 145 252 141 114-3 226-12 226-124 0-101-103-113-192-134-225-54-490-76-490-351 0-247 201-328 458-328 245 0 413 88 457 292l-249 26c-16-98-92-133-208-131" id="bi"/><path fill="#fff" d="M1113-274C1038-96 884 20 626 20c-352 0-526-209-526-566 0-358 185-556 530-556 358 0 496 251 499 615H395c5 180 68 319 245 319 102 0 186-45 208-129zM857-663c-6-177-128-307-315-247-94 30-141 121-145 247h460" id="bj"/><g id="o"><use transform="matrix(0.010959201388888886,0,0,0.010959201388888886,0,0)" xlink:href="#bd"/><use transform="matrix(0.010959201388888886,0,0,0.010959201388888886,13.468858506944441,0)" xlink:href="#be"/><use transform="matrix(0.010959201388888886,0,0,0.010959201388888886,26.937717013888882,0)" xlink:href="#bf"/><use transform="matrix(0.010959201388888886,0,0,0.010959201388888886,40.40657552083332,0)" xlink:href="#bg"/><use transform="matrix(0.010959201388888886,0,0,0.010959201388888886,53.875434027777764,0)" xlink:href="#ba"/><use transform="matrix(0.010959201388888886,0,0,0.010959201388888886,67.3442925347222,0)" xlink:href="#be"/><use transform="matrix(0.010959201388888886,0,0,0.010959201388888886,80.81315104166664,0)" xlink:href="#bh"/><use transform="matrix(0.010959201388888886,0,0,0.010959201388888886,94.28200954861109,0)" xlink:href="#bi"/><use transform="matrix(0.010959201388888886,0,0,0.010959201388888886,107.75086805555553,0)" xlink:href="#bj"/></g><path fill="#fff" d="M934-1102c199 0 220 177 220 381V0H926c-2-260 10-533-4-785-4-72-14-138-83-138-34 0-61 27-81 81s-29 134-29 241V0H501c-2-260 9-533-5-785-4-72-13-138-82-138-46 0-65 47-80 93-21 67-30 155-30 248V0H75c-3-360 6-732-6-1082h209c6 50 3 123 8 175 36-100 83-195 216-195 135 0 166 79 196 196 42-105 93-196 236-196" id="bk"/><path fill="#fff" d="M427-171c3 195 2 397 2 596H148V-846c1-83-4-168-8-236h272c10 49 14 118 15 176h4c59-114 151-197 316-197 291 0 385 259 385 560 0 243-65 433-220 521-50 28-109 42-176 42-162-2-253-78-309-191zm69-661c-91 113-92 463-1 586 46 62 145 101 225 54 96-57 118-191 119-351 0-123-18-215-53-276-46-82-128-115-220-74-25 12-48 33-70 61" id="bl"/><path fill="#fff" d="M794-190h353V0H118v-190h395v-1104H223v-190h571v1294" id="bm"/><path fill="#fff" d="M844-1321c-130 0-195 53-191 182v57h443v190H653V0H373v-892H117v-190h256v-83c5-247 162-348 422-349 120-1 232 13 327 28v184c-84-10-183-19-278-19" id="bn"/><path fill="#fff" d="M875-1102c70 0 148 7 206 17v237c-110-17-267-37-359 15-123 69-192 207-192 395V0H250c-10-367 32-789-52-1082h271c19 69 36 149 46 228h4c52-151 151-250 356-248" id="bo"/><g id="p"><use transform="matrix(0.010959201388888886,0,0,0.010959201388888886,0,0)" xlink:href="#aX"/><use transform="matrix(0.010959201388888886,0,0,0.010959201388888886,13.468858506944441,0)" xlink:href="#bk"/><use transform="matrix(0.010959201388888886,0,0,0.010959201388888886,26.937717013888882,0)" xlink:href="#bl"/><use transform="matrix(0.010959201388888886,0,0,0.010959201388888886,40.40657552083332,0)" xlink:href="#bm"/><use transform="matrix(0.010959201388888886,0,0,0.010959201388888886,53.875434027777764,0)" xlink:href="#bh"/><use transform="matrix(0.010959201388888886,0,0,0.010959201388888886,67.3442925347222,0)" xlink:href="#bn"/><use transform="matrix(0.010959201388888886,0,0,0.010959201388888886,80.81315104166664,0)" xlink:href="#bh"/><use transform="matrix(0.010959201388888886,0,0,0.010959201388888886,94.28200954861109,0)" xlink:href="#bj"/><use transform="matrix(0.010959201388888886,0,0,0.010959201388888886,107.75086805555553,0)" xlink:href="#bo"/></g><path fill="#fff" d="M621-530c0 421 127 700 301 955H641C466 173 344-110 344-531s122-702 297-953h281c-174 254-301 534-301 954" id="bp"/><path fill="#fff" d="M609-1161c-125 0-218 36-218 153 0 149 166 161 290 196 235 67 484 129 484 421 0 300-239 408-554 411C302 23 93-114 38-367l285-37c32 128 131 205 296 203 143-2 259-31 259-173 0-164-197-172-333-212-218-64-441-131-441-405 0-276 231-379 511-379 299 0 463 114 513 363l-286 29c-28-115-96-183-233-183" id="bq"/><path fill="#fff" d="M616-1349c316 3 526 118 526 426 0 301-201 442-514 447H431V0H136v-1349h480zm-25 646c164 1 254-62 254-215 0-157-99-200-262-202H431v417h160" id="br"/><path fill="#fff" d="M1092-1126C914-878 744-630 663-296c-23 96-34 194-34 296H336c7-366 145-620 298-854 59-90 126-177 197-264H131v-231h961v223" id="bs"/><path fill="#fff" d="M117-675c0-408 109-695 502-695 384 0 492 295 492 695 0 326-84 561-303 658-117 51-277 52-394 1-217-95-297-335-297-659zm591 451c148-93 132-449 108-680-15-138-53-246-199-246-150 0-193 107-207 248-22 230-40 585 106 678 50 32 141 32 192 0zM506-555v-249h215v249H506" id="bt"/><path fill="#fff" d="M885-531c0 421-122 704-297 956H307c174-255 301-534 301-955 0-420-127-700-301-954h281c175 251 297 532 297 953" id="bu"/><g id="q"><use transform="matrix(0.010959201388888886,0,0,0.010959201388888886,0,0)" xlink:href="#bp"/><use transform="matrix(0.010416666666666668,0,0,0.010416666666666668,13.468858506944443,0)" xlink:href="#bq"/><use transform="matrix(0.010416666666666668,0,0,0.010416666666666668,26.270941840277775,0)" xlink:href="#br"/><use transform="matrix(0.010416666666666668,0,0,0.010416666666666668,39.07302517361111,0)" xlink:href="#bs"/><use transform="matrix(0.010416666666666668,0,0,0.010416666666666668,51.87510850694444,0)" xlink:href="#bt"/><use transform="matrix(0.010416666666666668,0,0,0.010416666666666668,64.67719184027777,0)" xlink:href="#bu"/></g><g id="r"><use transform="matrix(0.010416666666666668,0,0,0.010416666666666668,0,0)" xlink:href="#br"/><use transform="matrix(0.010416666666666668,0,0,0.010416666666666668,12.802083333333334,0)" xlink:href="#be"/><use transform="matrix(0.010416666666666668,0,0,0.010416666666666668,25.604166666666668,0)" xlink:href="#bf"/><use transform="matrix(0.010416666666666668,0,0,0.010416666666666668,38.40625,0)" xlink:href="#bj"/><use transform="matrix(0.010416666666666668,0,0,0.010416666666666668,51.208333333333336,0)" xlink:href="#bo"/></g><path fill="#fff" d="M872-915c-35-112-84-223-220-223-91 0-156 41-204 116-89 137-87 550 2 688 51 79 116 122 209 122 150 0 197-126 240-244l273 52C1094-168 961 20 656 20 239 20 80-262 80-681c0-418 154-689 568-689 289 0 425 167 496 389" id="bv"/><path fill="#fff" d="M471 20c-247 0-336-169-336-415v-687h281v607c4 148 31 285 172 285 152 0 207-150 207-312v-580h281c4 359-9 736 8 1082H816c-7-63-11-146-12-215h-5C736-76 644 20 471 20" id="bw"/><g id="s"><use transform="matrix(0.010416666666666668,0,0,0.010416666666666668,0,0)" xlink:href="#bv"/><use transform="matrix(0.010416666666666668,0,0,0.010416666666666668,12.802083333333334,0)" xlink:href="#be"/><use transform="matrix(0.010416666666666668,0,0,0.010416666666666668,25.604166666666668,0)" xlink:href="#bw"/><use transform="matrix(0.010416666666666668,0,0,0.010416666666666668,38.40625,0)" xlink:href="#bl"/><use transform="matrix(0.010416666666666668,0,0,0.010416666666666668,51.208333333333336,0)" xlink:href="#bm"/><use transform="matrix(0.010416666666666668,0,0,0.010416666666666668,64.01041666666667,0)" xlink:href="#bj"/><use transform="matrix(0.010416666666666668,0,0,0.010416666666666668,76.8125,0)" xlink:href="#bo"/></g><path fill="#fff" d="M496-1349c439 0 656 222 653 664C1146-265 969 0 556 0H135v-1349h361zm36 1121c245-7 319-187 320-457 1-273-91-439-361-436h-61v893h102" id="bx"/><path fill="#fff" d="M1018 0H770c-49-215-106-420-154-636C567-419 511-214 459 0H211L0-1349h259c35 320 94 617 105 961 37-206 100-393 154-583h195c54 191 118 375 154 583 14-339 68-641 102-961h259" id="by"/><g id="t"><use transform="matrix(0.010416666666666668,0,0,0.010416666666666668,0,0)" xlink:href="#bp"/><use transform="matrix(0.010416666666666668,0,0,0.010416666666666668,12.802083333333334,0)" xlink:href="#bx"/><use transform="matrix(0.010416666666666668,0,0,0.010416666666666668,25.604166666666668,0)" xlink:href="#bv"/><use transform="matrix(0.010416666666666668,0,0,0.010416666666666668,38.40625,0)" xlink:href="#by"/></g><path fill="#fff" d="M135-968c34-256 187-402 480-402 217 0 371 75 441 220 45 93 40 219-8 308-114 212-348 323-508 488-38 39-66 80-85 123h654V0H123v-195c112-245 321-399 515-560 57-48 107-96 142-157 14-26 22-53 22-80-1-104-73-156-185-154-131 2-181 74-199 194" id="bz"/><path fill="#fff" d="M980-287V0H712v-287H71v-211l595-851h314v853h188v209H980zM712-496c2-204-7-417 9-609-118 224-277 405-414 609h405" id="bA"/><g id="u"><use transform="matrix(0.010416666666666668,0,0,0.010416666666666668,0,0)" xlink:href="#bz"/><use transform="matrix(0.010416666666666668,0,0,0.010416666666666668,12.802083333333334,0)" xlink:href="#bt"/><use transform="matrix(0.010416666666666668,0,0,0.010416666666666668,25.604166666666668,0)" xlink:href="#bt"/><use transform="matrix(0.010416666666666668,0,0,0.010416666666666668,38.40625,0)" xlink:href="#bA"/></g><path fill="#fff" d="M836-709c204 20 350 118 350 324C1186-112 992 0 719 0H137v-1349h525c258 3 443 87 443 339 0 176-107 269-269 301zM643-811c107 0 165-53 165-159 0-113-61-160-167-160H432v319h211zm46 592c128-1 201-59 200-191-1-128-80-183-207-183H432v374h257" id="bB"/><g id="v"><use transform="matrix(0.010416666666666668,0,0,0.010416666666666668,0,0)" xlink:href="#bB"/><use transform="matrix(0.010416666666666668,0,0,0.010416666666666668,12.802083333333334,0)" xlink:href="#bu"/></g><path d="M1031-970c-23-138-92-244-250-244-306 0-381 266-440 533-17 75-25 147-25 229 1 197 73 317 266 317 202 0 293-151 377-282l146 65C986-167 844 20 550 20c-297 0-434-170-434-467 0-413 147-747 446-877 112-49 299-63 420-18 132 49 200 159 229 307" id="bC"/><path d="M776-1370c274 1 414 159 404 442-14 419-153 770-452 904-69 31-144 44-224 44-276 1-411-170-402-450 14-416 146-766 446-897 69-30 145-43 228-43zM330-681c-48 232-51 546 205 546 109 0 196-47 264-140 94-129 174-388 179-638 3-184-62-301-232-301-104 0-191 44-260 132S367-861 330-681" id="bD"/><path d="M929 0l-64-382H302L91 0h-196l772-1349h217L1123 0H929zm-84-531c-33-225-70-447-100-674-114 230-242 451-363 674h463" id="bE"/><path d="M672-836l432-513h205L749-705 1088 0H883L620-573 136 0H-69l613-705-310-644h205" id="bF"/><g id="w"><use transform="matrix(0.010959201388888886,0,0,0.010959201388888886,0,0)" xlink:href="#bC"/><use transform="matrix(0.010959201388888886,0,0,0.010959201388888886,13.468858506944441,0)" xlink:href="#bD"/><use transform="matrix(0.010959201388888886,0,0,0.010959201388888886,26.937717013888882,0)" xlink:href="#bE"/><use transform="matrix(0.010959201388888886,0,0,0.010959201388888886,40.40657552083332,0)" xlink:href="#bF"/></g><path d="M621-530c0 421 127 700 301 955H641C466 173 344-110 344-531s122-702 297-953h281c-174 254-301 534-301 954" id="bG"/><path d="M616-1349c316 3 526 118 526 426 0 301-201 442-514 447H431V0H136v-1349h480zm-25 646c164 1 254-62 254-215 0-157-99-200-262-202H431v417h160" id="bH"/><path d="M143 212c82 12 185 12 233-31 50-45 83-117 110-192L38-1082h297c100 284 211 557 291 861 72-305 176-578 270-861h294L742 57c-80 192-156 368-417 368-60 0-131-4-182-13V212" id="bI"/><path d="M615-1370c385 0 542 273 542 691 0 358-114 602-378 679 41 115 114 187 266 186 41 0 86-7 123-13v202c-117 27-296 45-408-1C608 311 534 171 482 7 194-58 72-308 72-679c0-419 158-691 543-691zM797-330c77-133 78-564 0-695-44-73-101-113-182-113s-139 40-183 114c-79 133-78 560 0 694 45 77 102 118 183 118s138-41 182-118" id="bJ"/><path d="M762-1121V0H467v-1121H61v-228h1107v228H762" id="bK"/><g id="x"><use transform="matrix(0.010959201388888886,0,0,0.010959201388888886,0,0)" xlink:href="#bG"/><use transform="matrix(0.010959201388888886,0,0,0.010959201388888886,13.468858506944441,0)" xlink:href="#bH"/><use transform="matrix(0.010959201388888886,0,0,0.010959201388888886,26.937717013888882,0)" xlink:href="#bI"/><use transform="matrix(0.010959201388888886,0,0,0.010959201388888886,40.40657552083332,0)" xlink:href="#bJ"/><use transform="matrix(0.010959201388888886,0,0,0.010959201388888886,53.875434027777764,0)" xlink:href="#bK"/></g><path d="M650-216c90 0 157-35 208-74v-235H584v-218h544v558C1004-84 858 20 635 20 235 20 80-276 80-681c0-416 146-689 558-689 277 0 398 160 462 375l-274 54c-31-108-73-197-185-197-231 0-262 217-262 457 0 149 22 263 67 344s113 121 204 121" id="bL"/><path d="M1100-543c2 361-147 563-501 563-342 0-470-199-470-548v-821h295v818c3 172 13 322 183 320 173-2 198-150 198-330v-808h295v806" id="bM"/><path d="M157-1349h916v228H762v893h311V0H157v-228h311v-893H157v-228" id="bN"/><path d="M885-531c0 421-122 704-297 956H307c174-255 301-534 301-955 0-420-127-700-301-954h281c175 251 297 532 297 953" id="bO"/><g id="y"><use transform="matrix(0.010959201388888886,0,0,0.010959201388888886,0,0)" xlink:href="#bL"/><use transform="matrix(0.010959201388888886,0,0,0.010959201388888886,13.468858506944441,0)" xlink:href="#bM"/><use transform="matrix(0.010959201388888886,0,0,0.010959201388888886,26.937717013888882,0)" xlink:href="#bN"/><use transform="matrix(0.010959201388888886,0,0,0.010959201388888886,40.40657552083332,0)" xlink:href="#bO"/></g><path fill="#fff" d="M775-193C708-75 621 20 439 20 226 20 106-93 106-306c0-251 170-341 417-346l223-4c4-143-12-264-148-264-103 0-141 58-150 153l-293-14c37-219 194-321 455-321 263 0 418 130 417 390v392c1 84 5 161 89 160 21 0 42-2 62-6v152c-57 15-108 27-180 26-145 0-202-73-217-205h-6zm-256 17c168 0 234-139 227-325-166 4-347-25-347 173 0 94 33 152 120 152" id="bP"/><path fill="#fff" d="M768-1103c247 0 336 167 336 416V0H824v-619c-3-164-24-273-171-273-164 0-229 142-229 312V0H143c-4-359 9-736-8-1082h268c7 63 12 146 13 215h4c67-145 160-236 348-236" id="bQ"/><path fill="#fff" d="M1109-360C1066-122 902 20 624 20c-347 0-514-209-514-555 0-353 168-567 518-567 270 0 425 136 473 361l-283 14c-16-106-75-183-196-182-75 0-130 31-165 93s-52 152-52 270c0 249 74 374 221 374 120 0 188-82 201-201" id="bR"/><path fill="#fff" d="M774 0H438L31-1082h297c94 290 200 568 280 872 83-304 194-581 291-872h294" id="bS"/><g id="z"><use transform="matrix(0.010959201388888886,0,0,0.010959201388888886,0,0)" xlink:href="#bb"/><use transform="matrix(0.010959201388888886,0,0,0.010959201388888886,13.468858506944441,0)" xlink:href="#bo"/><use transform="matrix(0.010959201388888886,0,0,0.010959201388888886,26.937717013888882,0)" xlink:href="#bP"/><use transform="matrix(0.010959201388888886,0,0,0.010959201388888886,40.40657552083332,0)" xlink:href="#bQ"/><use transform="matrix(0.010959201388888886,0,0,0.010959201388888886,53.875434027777764,0)" xlink:href="#bi"/><use transform="matrix(0.010959201388888886,0,0,0.010959201388888886,67.3442925347222,0)" xlink:href="#bR"/><use transform="matrix(0.010959201388888886,0,0,0.010959201388888886,80.81315104166664,0)" xlink:href="#bh"/><use transform="matrix(0.010959201388888886,0,0,0.010959201388888886,94.28200954861109,0)" xlink:href="#bj"/><use transform="matrix(0.010959201388888886,0,0,0.010959201388888886,107.75086805555553,0)" xlink:href="#bS"/><use transform="matrix(0.010959201388888886,0,0,0.010959201388888886,121.21972656249997,0)" xlink:href="#bj"/><use transform="matrix(0.010959201388888886,0,0,0.010959201388888886,134.6885850694444,0)" xlink:href="#bo"/></g><path fill="#fff" d="M615-1370c385 0 542 273 542 691 0 230-47 404-140 522S790 20 615 20C231 20 72-262 72-679c0-419 158-691 543-691zM797-330c77-133 78-564 0-695-44-73-101-113-182-113s-139 40-183 114c-79 133-78 560 0 694 45 77 102 118 183 118s138-41 182-118" id="bT"/><path fill="#fff" d="M305-1169c27 366 9 780 14 1169H99v-1349h347c49 189 108 371 150 564 12 56 15 107 23 166 33-270 117-487 176-730h335V0H908c5-390-13-801 16-1169-52 285-130 541-199 809H507c-70-267-148-525-202-809" id="bU"/><g id="A"><use transform="matrix(0.010959201388888886,0,0,0.010959201388888886,0,0)" xlink:href="#bp"/><use transform="matrix(0.010959201388888886,0,0,0.010959201388888886,13.468858506944441,0)" xlink:href="#aZ"/><use transform="matrix(0.010959201388888886,0,0,0.010959201388888886,26.937717013888882,0)" xlink:href="#bv"/><use transform="matrix(0.010959201388888886,0,0,0.010959201388888886,40.40657552083332,0)" xlink:href="#bT"/><use transform="matrix(0.010959201388888886,0,0,0.010959201388888886,53.875434027777764,0)" xlink:href="#bU"/></g><path fill="#fff" d="M114-913c0-304 185-457 492-457 163 0 287 55 372 166s128 280 128 507c-1 325-87 566-302 671-146 73-404 55-514-32-75-59-123-143-151-253l264-37c24 90 76 147 180 147 76 0 135-35 179-105s67-174 68-313c-55 100-162 160-311 160-269 0-405-180-405-454zm486 245c129 0 209-78 209-211 0-151-63-271-210-271-137 0-200 99-200 239 0 139 63 243 201 243" id="bV"/><g id="B"><use transform="matrix(0.010959201388888886,0,0,0.010959201388888886,0,0)" xlink:href="#aZ"/><use transform="matrix(0.010959201388888886,0,0,0.010959201388888886,13.468858506944441,0)" xlink:href="#bv"/><use transform="matrix(0.010959201388888886,0,0,0.010959201388888886,26.937717013888882,0)" xlink:href="#bg"/><use transform="matrix(0.010959201388888886,0,0,0.010959201388888886,40.40657552083332,0)" xlink:href="#bV"/><use transform="matrix(0.010959201388888886,0,0,0.010959201388888886,53.875434027777764,0)" xlink:href="#bs"/><use transform="matrix(0.010959201388888886,0,0,0.010959201388888886,67.3442925347222,0)" xlink:href="#bt"/><use transform="matrix(0.010959201388888886,0,0,0.010959201388888886,80.81315104166664,0)" xlink:href="#bt"/><use transform="matrix(0.010959201388888886,0,0,0.010959201388888886,94.28200954861109,0)" xlink:href="#bu"/></g><path d="M404-910c-91 237-198 789 172 775 112-4 203-35 275-74l65-336H623l31-160h479l-111 572C890-56 737 20 530 20c-288 0-414-182-414-471 0-410 145-744 442-874 111-49 295-62 416-19 132 46 202 153 226 305l-182 56c-23-138-86-231-243-231-216 0-307 139-371 304" id="bW"/><path d="M512-1193l-96 494h676l-31 158H385L280 0H89l262-1349h891l-30 156H512" id="bX"/><path d="M747-1226c-195 1-328 74-328 254 0 150 168 158 292 193 206 58 444 122 384 409-56 265-271 388-594 390C217 22 49-81 40-338l192-37c3 179 117 247 303 246 215-2 375-80 375-283 0-168-187-179-325-221-168-51-357-87-357-299 0-308 229-433 548-438 258-4 409 81 417 324l-194 33c-2-154-93-214-252-213" id="bY"/><path d="M898 0L535-638 339-469 248 0H57l262-1349h191L379-676l703-673h225L692-777 1122 0H898" id="bZ"/><g id="C"><use transform="matrix(0.010959201388888886,0,0,0.010959201388888886,0,0)" xlink:href="#bW"/><use transform="matrix(0.010959201388888886,0,0,0.010959201388888886,13.468858506944441,0)" xlink:href="#bX"/><use transform="matrix(0.010959201388888886,0,0,0.010959201388888886,26.937717013888882,0)" xlink:href="#bY"/><use transform="matrix(0.010959201388888886,0,0,0.010959201388888886,40.40657552083332,0)" xlink:href="#bZ"/></g><g id="D"><use transform="matrix(0.010416666666666668,0,0,0.010416666666666668,0,0)" xlink:href="#bx"/><use transform="matrix(0.010416666666666668,0,0,0.010416666666666668,12.802083333333334,0)" xlink:href="#bh"/><use transform="matrix(0.010416666666666668,0,0,0.010416666666666668,25.604166666666668,0)" xlink:href="#bo"/><use transform="matrix(0.010416666666666668,0,0,0.010416666666666668,38.40625,0)" xlink:href="#bj"/><use transform="matrix(0.010416666666666668,0,0,0.010416666666666668,51.208333333333336,0)" xlink:href="#bf"/><use transform="matrix(0.010416666666666668,0,0,0.010416666666666668,64.01041666666667,0)" xlink:href="#be"/><use transform="matrix(0.010416666666666668,0,0,0.010416666666666668,76.8125,0)" xlink:href="#bm"/><use transform="matrix(0.010416666666666668,0,0,0.010416666666666668,89.61458333333333,0)" xlink:href="#bn"/></g><g id="E"><use transform="matrix(0.010416666666666668,0,0,0.010416666666666668,0,0)" xlink:href="#bb"/><use transform="matrix(0.010416666666666668,0,0,0.010416666666666668,12.802083333333334,0)" xlink:href="#ba"/><use transform="matrix(0.010416666666666668,0,0,0.010416666666666668,25.604166666666668,0)" xlink:href="#bv"/></g><path fill="#fff" d="M415-358c114-51 193-137 273-222h74c-40 74-74 142-119 199h990v85H643c46 51 80 119 119 193h-74c-80-85-165-165-273-222v-34" id="ca"/><path fill="#fff" d="M919 0L616-493 312 0H0l459-711-418-638h312l263 430 262-430h310L760-711 1229 0H919" id="cb"/><path fill="#fff" d="M470 0v-305h289V0H470" id="cc"/><path fill="#fff" d="M426-814c58-49 145-93 255-90 282 8 442 169 442 450 0 312-203 474-522 474-288 0-453-130-497-372l281-23c24 104 89 172 219 172 153 0 230-91 230-245 0-144-78-226-224-229-94-2-148 42-191 91H145l49-763h847v209H449" id="cd"/><path fill="#fff" d="M1633-324c-108 57-193 137-273 222h-74c40-74 74-137 119-193H415v-85h990c-46-57-80-125-119-199h74c80 85 159 171 273 222v34" id="ce"/><g id="F"><use transform="matrix(0.010416666666666668,0,0,0.010416666666666668,0,0)" xlink:href="#ca"/><use transform="matrix(0.010416666666666668,0,0,0.010416666666666668,21.333333333333336,0)" xlink:href="#bp"/><use transform="matrix(0.010416666666666668,0,0,0.010416666666666668,34.13541666666667,0)" xlink:href="#aX"/><use transform="matrix(0.010416666666666668,0,0,0.010416666666666668,46.93750000000001,0)" xlink:href="#cb"/><use transform="matrix(0.010416666666666668,0,0,0.010416666666666668,59.73958333333334,0)" xlink:href="#cc"/><use transform="matrix(0.010416666666666668,0,0,0.010416666666666668,72.54166666666667,0)" xlink:href="#bz"/><use transform="matrix(0.010416666666666668,0,0,0.010416666666666668,85.34374999999999,0)" xlink:href="#cd"/><use transform="matrix(0.010416666666666668,0,0,0.010416666666666668,98.14583333333333,0)" xlink:href="#bu"/><use transform="matrix(0.010416666666666668,0,0,0.010416666666666668,110.94791666666666,0)" xlink:href="#ce"/></g><path d="M604-135c236 0 291-142 291-376v-838h190v859c5 340-142 510-480 510-326 0-463-164-463-492v-877h191v851c-3 222 46 363 271 363" id="cf"/><path d="M614-1226c-167 1-283 53-283 213 0 183 186 193 334 234 230 63 463 120 463 409 0 286-219 387-518 390C309 23 131-98 79-338l185-37c34 165 149 248 351 246 184-2 324-58 324-238 0-203-207-221-372-266-210-57-422-111-422-377 0-267 201-356 470-360 279-5 430 101 480 324l-188 33c-28-141-121-215-293-213" id="cg"/><path d="M802-711c201 25 350 118 350 331C1152-95 921 0 634 0H162v-1349c401 9 908-74 908 327 0 184-111 275-268 311zm-224-69c174-2 300-51 300-218 0-163-124-198-302-198H353v416h225zM353-153c281-2 612 44 606-244-5-271-329-233-606-234v478" id="ch"/><g id="G"><use transform="matrix(0.010416666666666668,0,0,0.010416666666666668,0,0)" xlink:href="#cf"/><use transform="matrix(0.010416666666666668,0,0,0.010416666666666668,12.802083333333334,0)" xlink:href="#cg"/><use transform="matrix(0.010416666666666668,0,0,0.010416666666666668,25.604166666666668,0)" xlink:href="#ch"/></g><path d="M528 20c-247 0-343-132-343-381v-721h180v686c-4 177 45 284 224 277 194-8 279-136 279-336v-627h181c3 360-6 732 6 1082H885c-4-54-7-126-8-185h-3C809-64 714 20 528 20" id="ci"/><path d="M865-914c-3-187-2-380-2-570h180v1261c0 76 1 155 6 223H877c-8-49-9-116-10-174h-5C801-44 708 26 530 26c-135 0-234-46-297-139s-95-232-95-419c0-377 131-566 392-566 176 0 271 63 335 184zm-286-51c-222 0-255 197-255 427 0 229 31 425 253 425 237 0 286-195 286-441 0-238-52-411-284-411" id="cj"/><path d="M745-142h380V0H143v-142h422v-798H246v-142h499v940zM545-1292v-192h200v192H545" id="ck"/><path d="M615-1102c343 0 484 203 482 560-1 347-147 562-488 562-336 0-475-219-479-562-4-349 156-560 485-560zm-8 989c240 0 301-180 301-429 0-245-55-427-290-427-236 0-299 181-299 427 0 243 61 429 288 429" id="cl"/><g id="H"><use transform="matrix(0.010416666666666668,0,0,0.010416666666666668,0,0)" xlink:href="#aO"/><use transform="matrix(0.010416666666666668,0,0,0.010416666666666668,12.802083333333334,0)" xlink:href="#ci"/><use transform="matrix(0.010416666666666668,0,0,0.010416666666666668,25.604166666666668,0)" xlink:href="#cj"/><use transform="matrix(0.010416666666666668,0,0,0.010416666666666668,38.40625,0)" xlink:href="#ck"/><use transform="matrix(0.010416666666666668,0,0,0.010416666666666668,51.208333333333336,0)" xlink:href="#cl"/></g><path d="M687-608v428H540v-428H116v-146h424v-428h147v428h424v146H687" id="cm"/><use transform="matrix(0.010416666666666668,0,0,0.010416666666666668,0,0)" xlink:href="#cm" id="I"/><path d="M650-1214c-281 0-336 244-336 533 0 295 60 546 347 546 188 0 263-142 322-282l159 65C1058-155 935 20 659 20c-401 0-546-295-546-701 0-407 135-689 536-689 264 0 391 146 466 335l-168 65c-47-129-127-244-297-244" id="cn"/><g id="J"><use transform="matrix(0.010416666666666668,0,0,0.010416666666666668,0,0)" xlink:href="#cn"/><use transform="matrix(0.010416666666666668,0,0,0.010416666666666668,12.802083333333334,0)" xlink:href="#aO"/><use transform="matrix(0.010416666666666668,0,0,0.010416666666666668,25.604166666666668,0)" xlink:href="#aP"/></g><path d="M891-1484c-201 251-362 514-362 954 0 441 161 704 362 955H701C500 176 342-90 342-532c0-440 159-704 359-952h190" id="co"/><path d="M528-1484c201 248 357 511 357 952 0 442-156 709-357 957H336C537 174 700-89 700-530c0-440-163-703-364-954h192" id="cp"/><g id="K"><use transform="matrix(0.010416666666666668,0,0,0.010416666666666668,0,0)" xlink:href="#co"/><use transform="matrix(0.010416666666666668,0,0,0.010416666666666668,12.802083333333334,0)" xlink:href="#aN"/><use transform="matrix(0.010416666666666668,0,0,0.010416666666666668,25.604166666666668,0)" xlink:href="#aP"/><use transform="matrix(0.010416666666666668,0,0,0.010416666666666668,38.40625,0)" xlink:href="#aP"/><use transform="matrix(0.010416666666666668,0,0,0.010416666666666668,51.208333333333336,0)" xlink:href="#cp"/></g><path d="M57 0l262-1349h919l-30 156H480l-82 422h668l-30 154H368l-90 461h769L1017 0H57" id="cq"/><path d="M731 0L431-1130c-8 85-19 175-34 254L227 0H57l262-1349h222L848-211c8-92 19-186 35-274l168-864h172L961 0H731" id="cr"/><path d="M801-1349c273-6 458 108 405 373-42 211-195 340-418 379L1072 0H852L598-575H360L248 0H57l262-1349h482zM669-726c214-4 349-100 349-300 0-113-89-170-266-170H480l-91 470h280" id="cs"/><path d="M836-1193L604 0H414l232-1193H203l30-156h1076l-30 156H836" id="ct"/><g id="L"><use transform="matrix(0.010959201388888886,0,0,0.010959201388888886,0,0)" xlink:href="#bW"/><use transform="matrix(0.010959201388888886,0,0,0.010959201388888886,13.468858506944441,0)" xlink:href="#cq"/><use transform="matrix(0.010959201388888886,0,0,0.010959201388888886,26.937717013888882,0)" xlink:href="#cr"/><use transform="matrix(0.010959201388888886,0,0,0.010959201388888886,40.40657552083332,0)" xlink:href="#cq"/><use transform="matrix(0.010959201388888886,0,0,0.010959201388888886,53.875434027777764,0)" xlink:href="#cs"/><use transform="matrix(0.010959201388888886,0,0,0.010959201388888886,67.3442925347222,0)" xlink:href="#bE"/><use transform="matrix(0.010959201388888886,0,0,0.010959201388888886,80.81315104166664,0)" xlink:href="#ct"/><use transform="matrix(0.010959201388888886,0,0,0.010959201388888886,94.28200954861109,0)" xlink:href="#cq"/><use transform="matrix(0.010959201388888886,0,0,0.010959201388888886,107.75086805555553,0)" xlink:href="#bY"/></g><path d="M779-1349c276-3 478 117 419 404-54 263-252 422-569 431H348L248 0H57l262-1349h460zM631-665c230-6 380-118 380-337 0-148-118-194-285-194H480L377-665h254" id="cu"/><g id="M"><use transform="matrix(0.010959201388888886,0,0,0.010959201388888886,0,0)" xlink:href="#cu"/><use transform="matrix(0.010959201388888886,0,0,0.010959201388888886,13.468858506944441,0)" xlink:href="#bE"/><use transform="matrix(0.010959201388888886,0,0,0.010959201388888886,26.937717013888882,0)" xlink:href="#bC"/><use transform="matrix(0.010959201388888886,0,0,0.010959201388888886,40.40657552083332,0)" xlink:href="#bZ"/><use transform="matrix(0.010959201388888886,0,0,0.010959201388888886,53.875434027777764,0)" xlink:href="#cq"/><use transform="matrix(0.010959201388888886,0,0,0.010959201388888886,67.3442925347222,0)" xlink:href="#ct"/></g><path d="M945-915c-13-119-52-223-177-223-91 0-164 41-226 116-82 99-156 334-156 536 0 164 55 274 209 274 161 0 224-131 288-244l263 52C1025-182 874 20 547 20 236 20 83-141 83-449c0-420 155-750 465-876 120-49 313-64 440-16 146 55 221 182 242 360" id="cv"/><path d="M362 20C180 20 93-74 92-253c0-45 5-92 15-142l133-687h281L403-475c-25 128-21 296 117 285 166-13 238-158 268-312l112-580h281C1114-721 1035-372 979 0H711c6-69 19-150 30-215h-5C648-80 546 20 362 20" id="cw"/><path d="M878-785c2-107-76-132-183-131-119 2-205 19-222 111-16 90 70 102 145 121 212 54 501 76 442 368C1012-80 798 20 511 20 263 20 83-39 68-270l255-37c-3 153 168 150 315 135 82-9 147-41 159-118 16-101-81-113-165-134-152-39-331-58-402-177-56-94-15-240 36-311 90-126 249-191 465-191 227 0 393 72 401 292" id="cx"/><path d="M934-19C661 27 215 78 277-280c36-207 80-407 119-612H229l37-190h181l143-282h176l-55 282h385l-37 190H674c-37 191-72 381-110 573-40 205 250 136 406 114" id="cy"/><path d="M725-1102c305 0 463 153 426 468-36 300-163 518-405 612-72 28-154 42-245 42C201 22 46-148 80-460c32-293 164-506 400-600 72-28 153-42 245-42zM432-707c-57 152-149 543 103 535 249-8 288-238 323-464 24-154-11-278-166-273-150 5-217 88-260 202" id="cz"/><path d="M966-761c11-69 20-163-53-162-34 0-66 27-96 81s-55 134-76 241L624 0H396c48-253 104-503 145-761 11-69 20-166-53-162-50 3-75 49-98 93-36 67-60 156-78 248L199 0H-30c67-361 144-713 204-1082h209c-6 55-18 122-28 175h2c54-95 112-192 254-195 127-2 153 72 158 196 61-99 122-196 274-196 124 0 168 64 168 192 0 67-10 125-22 189L1049 0H821c48-253 104-503 145-761" id="cA"/><g id="N"><use transform="matrix(0.010959201388888886,0,0,0.010959201388888886,0,0)" xlink:href="#cv"/><use transform="matrix(0.010959201388888886,0,0,0.010959201388888886,13.468858506944441,0)" xlink:href="#cw"/><use transform="matrix(0.010959201388888886,0,0,0.010959201388888886,26.937717013888882,0)" xlink:href="#cx"/><use transform="matrix(0.010959201388888886,0,0,0.010959201388888886,40.40657552083332,0)" xlink:href="#cy"/><use transform="matrix(0.010959201388888886,0,0,0.010959201388888886,53.875434027777764,0)" xlink:href="#cz"/><use transform="matrix(0.010959201388888886,0,0,0.010959201388888886,67.3442925347222,0)" xlink:href="#cA"/></g><path d="M773-1349c295-6 508 117 443 426-58 279-261 442-600 447H419L326 0H31l262-1349h480zM623-703c194 1 294-89 301-270 7-171-206-145-380-147l-81 417h160" id="cB"/><path d="M708-193C620-81 523 15 330 20 129 25 18-101 60-306c48-232 215-341 485-346l224-4c7-45 20-89 20-139 1-86-39-124-117-125-111-1-152 65-180 153l-290-14c73-204 237-321 517-321 254 0 393 135 341 390-30 146-59 290-84 438-11 62 0 114 66 114 21 0 42-2 63-6l-29 152c-59 14-111 26-185 26-136 0-190-69-177-205h-6zm30-308c-139 4-289-11-346 83-19 31-40 91-40 144 0 65 32 98 96 98 184 0 263-154 290-325" id="cC"/><path d="M1074-360C991-138 813 15 515 20 220 25 64-146 97-454c33-303 170-518 413-610 69-26 145-38 227-38 250 0 397 117 403 361l-286 14c6-112-45-182-160-182-75 0-135 32-183 93-64 81-123 271-123 431 0 142 55 213 166 213 129 0 207-88 241-201" id="cD"/><path d="M759 0L565-490l-137 84L349 0H68l288-1484h281L472-634l473-448h302L785-660 1066 0H759" id="cE"/><path d="M1061-274C957-107 790 19 517 20 218 21 54-146 88-462c35-319 185-528 448-611 67-21 135-29 203-29 270 2 398 150 401 417 0 72-9 133-21 198H385c-33 166 14 324 183 319 116-3 193-49 233-129zM881-663c35-185-91-308-267-247-105 37-165 127-193 247h460" id="cF"/><g id="O"><use transform="matrix(0.010959201388888886,0,0,0.010959201388888886,0,0)" xlink:href="#cB"/><use transform="matrix(0.010959201388888886,0,0,0.010959201388888886,13.468858506944441,0)" xlink:href="#cC"/><use transform="matrix(0.010959201388888886,0,0,0.010959201388888886,26.937717013888882,0)" xlink:href="#cD"/><use transform="matrix(0.010959201388888886,0,0,0.010959201388888886,40.40657552083332,0)" xlink:href="#cE"/><use transform="matrix(0.010959201388888886,0,0,0.010959201388888886,53.875434027777764,0)" xlink:href="#cF"/><use transform="matrix(0.010959201388888886,0,0,0.010959201388888886,67.3442925347222,0)" xlink:href="#cy"/></g><path d="M584-193c0 251 61 432 150 618H453C364 245 305 68 305-181c0-590 228-980 519-1303h281C818-1158 584-780 584-193" id="cG"/><path d="M730-1161c-145 1-251 50-251 182 0 125 149 135 255 167 163 49 335 92 392 242 47 123 0 258-56 342C963-68 771 20 502 20 211 20 18-89 4-367l293-37c10 136 99 204 256 203 166-1 296-47 296-202 0-140-177-148-295-183-193-58-417-135-362-405 53-258 280-379 584-379 281 0 438 97 443 363l-292 29c-6-122-68-183-197-183" id="cH"/><path d="M920-880c0 590-229 982-520 1305H119C407 100 641-278 641-866c0-253-60-432-151-618h281c84 170 149 355 149 604" id="cI"/><g id="P"><use transform="matrix(0.010959201388888886,0,0,0.010959201388888886,0,0)" xlink:href="#cG"/><use transform="matrix(0.010959201388888886,0,0,0.010959201388888886,13.468858506944441,0)" xlink:href="#cv"/><use transform="matrix(0.010959201388888886,0,0,0.010959201388888886,26.937717013888882,0)" xlink:href="#cH"/><use transform="matrix(0.010959201388888886,0,0,0.010959201388888886,40.40657552083332,0)" xlink:href="#cB"/><use transform="matrix(0.010959201388888886,0,0,0.010959201388888886,53.875434027777764,0)" xlink:href="#cI"/></g><g id="Q"><use transform="matrix(0.010959201388888886,0,0,0.010959201388888886,0,0)" xlink:href="#bC"/><use transform="matrix(0.010959201388888886,0,0,0.010959201388888886,13.468858506944441,0)" xlink:href="#bD"/><use transform="matrix(0.010959201388888886,0,0,0.010959201388888886,26.937717013888882,0)" xlink:href="#bE"/><use transform="matrix(0.010959201388888886,0,0,0.010959201388888886,40.40657552083332,0)" xlink:href="#bF"/></g><path d="M202-1349h823v156H709v1037h316V0H202v-156h316v-1037H202v-156" id="cJ"/><path d="M285-1169c8 382 2 780 4 1169H129v-1349h237c86 239 188 461 253 720 69-258 169-481 255-720h225V0H937c2-390-5-788 6-1169-75 255-170 488-259 729H547c-90-240-185-475-262-729" id="cK"/><g id="R"><use transform="matrix(0.010416666666666668,0,0,0.010416666666666668,0,0)" xlink:href="#cJ"/><use transform="matrix(0.010416666666666668,0,0,0.010416666666666668,12.802083333333334,0)" xlink:href="#cn"/><use transform="matrix(0.010416666666666668,0,0,0.010416666666666668,25.604166666666668,0)" xlink:href="#aR"/><use transform="matrix(0.010416666666666668,0,0,0.010416666666666668,38.40625,0)" xlink:href="#cK"/></g><path d="M904-1102c199 0 220 177 220 381V0H956v-686c-3-114 0-215-60-264-70-33-125-4-158 71-26 56-39 140-39 252V0H531v-686c-3-114-1-215-61-264-78-41-136 24-157 84-24 69-39 159-39 259V0H105c-3-360 6-732-6-1082h149c6 50 3 123 8 175 36-100 83-195 216-195 135 0 166 79 196 196 42-105 93-196 236-196" id="cL"/><path d="M736-142h380V0H134v-142h422v-1200H267v-142h469v1342" id="cM"/><path d="M1000-272c3 95 12 159 101 161 21 0 41-3 59-7V-6c-44 10-86 16-139 16-141 2-191-84-197-217h-6C748-76 648 20 446 20c-207 0-318-120-318-322 0-266 194-348 454-354l236-4c12-191-40-305-222-305-140 0-220 47-232 172l-188-17c33-204 181-292 423-292 255 0 401 118 401 364v466zm-683-27c0 109 63 184 175 182 166-3 259-96 306-217 24-65 20-120 20-200-232 7-501-28-501 235" id="cN"/><path d="M682 16c-209 0-323-80-324-285v-671H190v-142h170l58-282h120v282h432v142H538v652c2 114 60 155 182 155 106 0 209-16 297-34v137C921-4 806 16 682 16" id="cO"/><path d="M617-1102c355 0 481 238 477 599H322c5 222 84 388 301 388 144 0 244-59 284-166l158 45C1002-72 854 20 623 20c-342 0-490-220-490-568 0-346 151-554 484-554zm291 461c-18-192-90-328-289-328-194 0-287 128-295 328h584" id="cP"/><path d="M873-819c-18-114-119-146-250-146-163 0-245 50-245 151 0 151 170 148 294 185 182 54 388 94 388 320 0 240-189 325-439 329-245 4-410-69-454-268l159-31c24 133 136 168 295 165 144-2 270-31 270-171 0-164-195-160-331-202-167-52-350-87-350-299 0-218 173-315 413-313 220 2 373 77 412 260" id="cQ"/><g id="S"><use transform="matrix(0.010416666666666668,0,0,0.010416666666666668,0,0)" xlink:href="#cL"/><use transform="matrix(0.010416666666666668,0,0,0.010416666666666668,12.802083333333334,0)" xlink:href="#cl"/><use transform="matrix(0.010416666666666668,0,0,0.010416666666666668,25.604166666666668,0)" xlink:href="#cj"/><use transform="matrix(0.010416666666666668,0,0,0.010416666666666668,38.40625,0)" xlink:href="#ci"/><use transform="matrix(0.010416666666666668,0,0,0.010416666666666668,51.208333333333336,0)" xlink:href="#cM"/><use transform="matrix(0.010416666666666668,0,0,0.010416666666666668,64.01041666666667,0)" xlink:href="#cN"/><use transform="matrix(0.010416666666666668,0,0,0.010416666666666668,76.8125,0)" xlink:href="#cO"/><use transform="matrix(0.010416666666666668,0,0,0.010416666666666668,89.61458333333333,0)" xlink:href="#cP"/><use transform="matrix(0.010416666666666668,0,0,0.010416666666666668,102.41666666666666,0)" xlink:href="#cQ"/></g><g id="T"><use transform="matrix(0.010416666666666668,0,0,0.010416666666666668,0,0)" xlink:href="#cN"/><use transform="matrix(0.010416666666666668,0,0,0.010416666666666668,12.802083333333334,0)" xlink:href="#ci"/><use transform="matrix(0.010416666666666668,0,0,0.010416666666666668,25.604166666666668,0)" xlink:href="#cj"/><use transform="matrix(0.010416666666666668,0,0,0.010416666666666668,38.40625,0)" xlink:href="#ck"/><use transform="matrix(0.010416666666666668,0,0,0.010416666666666668,51.208333333333336,0)" xlink:href="#cl"/></g><path d="M706-1102c241 0 344 136 343 381V0H868v-695c1-168-57-273-220-268-190 6-283 138-283 336V0H185c-3-360 6-732-6-1082h170c4 54 7 126 8 185h3c63-121 164-204 346-205" id="cR"/><g id="U"><use transform="matrix(0.010416666666666668,0,0,0.010416666666666668,0,0)" xlink:href="#ck"/><use transform="matrix(0.010416666666666668,0,0,0.010416666666666668,12.802083333333334,0)" xlink:href="#cR"/><use transform="matrix(0.010416666666666668,0,0,0.010416666666666668,25.604166666666668,0)" xlink:href="#cO"/><use transform="matrix(0.010416666666666668,0,0,0.010416666666666668,38.40625,0)" xlink:href="#cl"/></g><g id="V"><use transform="matrix(0.010416666666666668,0,0,0.010416666666666668,0,0)" xlink:href="#aL"/><use transform="matrix(0.010416666666666668,0,0,0.010416666666666668,12.802083333333334,0)" xlink:href="#aV"/></g><path d="M108-723c64-48 152-85 263-84 203 2 312 117 505 117 104 0 182-43 244-92v149c-68 49-143 81-260 80-172-2-344-117-504-115-112 1-181 41-248 88v-143" id="cS"/><path d="M937-319V0H757v-319H103v-140l635-890h199v888h188v142H937zm-180-835L257-461h500v-693" id="cT"/><path d="M932 0L611-444 288 0H94l415-556-397-526h199l300 421 298-421h201L713-558 1133 0H932" id="cU"/><g id="W"><use transform="matrix(0.010416666666666668,0,0,0.010416666666666668,0,0)" xlink:href="#co"/><use transform="matrix(0.010416666666666668,0,0,0.010416666666666668,12.802083333333334,0)" xlink:href="#cS"/><use transform="matrix(0.010416666666666668,0,0,0.010416666666666668,25.604166666666668,0)" xlink:href="#cT"/><use transform="matrix(0.010416666666666668,0,0,0.010416666666666668,38.40625,0)" xlink:href="#cU"/><use transform="matrix(0.010416666666666668,0,0,0.010416666666666668,51.208333333333336,0)" xlink:href="#cU"/></g><path d="M147 0v-137l681-806H187v-139h844v137L349-139h719V0H147" id="cV"/><g id="X"><use transform="matrix(0.010416666666666668,0,0,0.010416666666666668,0,0)" xlink:href="#cK"/><use transform="matrix(0.010416666666666668,0,0,0.010416666666666668,12.802083333333334,0)" xlink:href="#aQ"/><use transform="matrix(0.010416666666666668,0,0,0.010416666666666668,25.604166666666668,0)" xlink:href="#cV"/><use transform="matrix(0.010416666666666668,0,0,0.010416666666666668,38.40625,0)" xlink:href="#cp"/></g><g id="Y"><use transform="matrix(0.010416666666666668,0,0,0.010416666666666668,0,0)" xlink:href="#cN"/><use transform="matrix(0.010416666666666668,0,0,0.010416666666666668,12.802083333333334,0)" xlink:href="#cR"/><use transform="matrix(0.010416666666666668,0,0,0.010416666666666668,25.604166666666668,0)" xlink:href="#cj"/></g><path d="M839-1102c70 0 148 7 206 17v167c-112-18-268-36-363 15-129 69-208 203-208 395V0H294c-10-367 32-789-52-1082h171c21 75 41 161 48 250h5c67-152 152-270 373-270" id="cW"/><g id="Z"><use transform="matrix(0.010416666666666668,0,0,0.010416666666666668,0,0)" xlink:href="#cO"/><use transform="matrix(0.010416666666666668,0,0,0.010416666666666668,12.802083333333334,0)" xlink:href="#cW"/><use transform="matrix(0.010416666666666668,0,0,0.010416666666666668,25.604166666666668,0)" xlink:href="#cN"/><use transform="matrix(0.010416666666666668,0,0,0.010416666666666668,38.40625,0)" xlink:href="#cR"/><use transform="matrix(0.010416666666666668,0,0,0.010416666666666668,51.208333333333336,0)" xlink:href="#cQ"/><use transform="matrix(0.010416666666666668,0,0,0.010416666666666668,64.01041666666667,0)" xlink:href="#cL"/><use transform="matrix(0.010416666666666668,0,0,0.010416666666666668,76.8125,0)" xlink:href="#ck"/><use transform="matrix(0.010416666666666668,0,0,0.010416666666666668,89.61458333333333,0)" xlink:href="#cO"/><use transform="matrix(0.010416666666666668,0,0,0.010416666666666668,102.41666666666666,0)" xlink:href="#cQ"/></g><g id="aa"><use transform="matrix(0.010959201388888886,0,0,0.010959201388888886,0,0)" xlink:href="#aP"/><use transform="matrix(0.010959201388888886,0,0,0.010959201388888886,13.468858506944441,0)" xlink:href="#aM"/></g><g id="ab"><use transform="matrix(0.010959201388888886,0,0,0.010959201388888886,0,0)" xlink:href="#aN"/><use transform="matrix(0.010959201388888886,0,0,0.010959201388888886,13.468858506944441,0)" xlink:href="#aO"/><use transform="matrix(0.010959201388888886,0,0,0.010959201388888886,26.937717013888882,0)" xlink:href="#aP"/><use transform="matrix(0.010959201388888886,0,0,0.010959201388888886,40.40657552083332,0)" xlink:href="#aQ"/></g><path d="M373 425v-1909h602v190H639V234h336v191H373" id="cX"/><path d="M609-1161c-125 0-218 36-218 153 0 149 166 161 290 196 235 67 484 129 484 421 0 300-239 408-554 411C302 23 93-114 38-367l285-37c32 128 131 205 296 203 143-2 259-31 259-173 0-164-197-172-333-212-218-64-441-131-441-405 0-276 231-379 511-379 299 0 463 114 513 363l-286 29c-28-115-96-183-233-183" id="cY"/><path d="M1092-1126C914-878 744-630 663-296c-23 96-34 194-34 296H336c7-366 145-620 298-854 59-90 126-177 197-264H131v-231h961v223" id="cZ"/><path d="M117-675c0-408 109-695 502-695 384 0 492 295 492 695 0 326-84 561-303 658-117 51-277 52-394 1-217-95-297-335-297-659zm591 451c148-93 132-449 108-680-15-138-53-246-199-246-150 0-193 107-207 248-22 230-40 585 106 678 50 32 141 32 192 0zM506-555v-249h215v249H506" id="da"/><g id="ac"><use transform="matrix(0.007595486111111112,0,0,0.007595486111111112,0,0)" xlink:href="#cX"/><use transform="matrix(0.007595486111111112,0,0,0.007595486111111112,9.334852430555557,0)" xlink:href="#cY"/><use transform="matrix(0.007595486111111112,0,0,0.007595486111111112,18.669704861111114,0)" xlink:href="#bH"/><use transform="matrix(0.007595486111111112,0,0,0.007595486111111112,28.00455729166667,0)" xlink:href="#cZ"/><use transform="matrix(0.007595486111111112,0,0,0.007595486111111112,37.33940972222223,0)" xlink:href="#da"/></g><path d="M1157-949c0 209-118 316-279 368L1227 0H895L605-515H432V0H137v-1349h494c317-2 526 111 526 400zM608-744c158 1 248-51 252-193 5-207-223-184-428-183v376h176" id="db"/><path d="M137 0v-1349h968v228H432v324h612v228H432v341h714V0H137" id="dc"/><path d="M211 0v-1349h295v1121h616V0H211" id="dd"/><path d="M1229 0H935l-92-330H387L295 0H0l443-1349h344zM615-1167c-46 213-110 412-166 615h332c-56-204-119-401-166-615" id="de"/><path d="M761-556V0H467v-556L3-1349h309l300 566 304-566h309" id="df"/><g id="ad"><use transform="matrix(0.007595486111111112,0,0,0.007595486111111112,0,0)" xlink:href="#db"/><use transform="matrix(0.007595486111111112,0,0,0.007595486111111112,9.334852430555557,0)" xlink:href="#dc"/><use transform="matrix(0.007595486111111112,0,0,0.007595486111111112,18.669704861111114,0)" xlink:href="#dd"/><use transform="matrix(0.007595486111111112,0,0,0.007595486111111112,28.00455729166667,0)" xlink:href="#de"/><use transform="matrix(0.007595486111111112,0,0,0.007595486111111112,37.33940972222223,0)" xlink:href="#df"/></g><path d="M1018 0H770c-49-215-106-420-154-636C567-419 511-214 459 0H211L0-1349h259c35 320 94 617 105 961 37-206 100-393 154-583h195c54 191 118 375 154 583 14-339 68-641 102-961h259" id="dg"/><path d="M872-915c-35-112-84-223-220-223-91 0-156 41-204 116-89 137-87 550 2 688 51 79 116 122 209 122 150 0 197-126 240-244l273 52C1094-168 961 20 656 20 239 20 80-262 80-681c0-418 154-689 568-689 289 0 425 167 496 389" id="dh"/><path d="M796 0v-574H433V0H138v-1349h295v531h363v-531h295V0H796" id="di"/><path d="M865-312c-44-312-23-686-28-1037h257V0H748L364-1010c44 304 24 668 28 1010H135v-1349h337" id="dj"/><path d="M254 425V234h336v-1528H254v-190h602V425H254" id="dk"/><g id="ae"><use transform="matrix(0.007595486111111112,0,0,0.007595486111111112,0,0)" xlink:href="#cY"/><use transform="matrix(0.007595486111111112,0,0,0.007595486111111112,9.334852430555557,0)" xlink:href="#dg"/><use transform="matrix(0.007595486111111112,0,0,0.007595486111111112,18.669704861111114,0)" xlink:href="#bN"/><use transform="matrix(0.007595486111111112,0,0,0.007595486111111112,28.00455729166667,0)" xlink:href="#bK"/><use transform="matrix(0.007595486111111112,0,0,0.007595486111111112,37.33940972222223,0)" xlink:href="#dh"/><use transform="matrix(0.007595486111111112,0,0,0.007595486111111112,46.674262152777786,0)" xlink:href="#di"/><use transform="matrix(0.007595486111111112,0,0,0.007595486111111112,56.00911458333334,0)" xlink:href="#bN"/><use transform="matrix(0.007595486111111112,0,0,0.007595486111111112,65.3439670138889,0)" xlink:href="#dj"/><use transform="matrix(0.007595486111111112,0,0,0.007595486111111112,74.67881944444446,0)" xlink:href="#bL"/><use transform="matrix(0.007595486111111112,0,0,0.007595486111111112,84.01367187500001,0)" xlink:href="#dk"/></g><path d="M836-709c204 20 350 118 350 324C1186-112 992 0 719 0H137v-1349h525c258 3 443 87 443 339 0 176-107 269-269 301zM643-811c107 0 165-53 165-159 0-113-61-160-167-160H432v319h211zm46 592c128-1 201-59 200-191-1-128-80-183-207-183H432v374h257" id="dl"/><g id="af"><use transform="matrix(0.010959201388888886,0,0,0.010959201388888886,0,0)" xlink:href="#dh"/><use transform="matrix(0.010959201388888886,0,0,0.010959201388888886,13.468858506944441,0)" xlink:href="#bM"/><use transform="matrix(0.010959201388888886,0,0,0.010959201388888886,26.937717013888882,0)" xlink:href="#dl"/><use transform="matrix(0.010959201388888886,0,0,0.010959201388888886,40.40657552083332,0)" xlink:href="#dc"/><use transform="matrix(0.010959201388888886,0,0,0.010959201388888886,53.875434027777764,0)" xlink:href="#cY"/><use transform="matrix(0.010959201388888886,0,0,0.010959201388888886,67.3442925347222,0)" xlink:href="#de"/><use transform="matrix(0.010959201388888886,0,0,0.010959201388888886,80.81315104166664,0)" xlink:href="#bK"/></g><path d="M496-1349c439 0 656 222 653 664C1146-265 969 0 556 0H135v-1349h361zm36 1121c245-7 319-187 320-457 1-273-91-439-361-436h-61v893h102" id="dm"/><path d="M615-1370c385 0 542 273 542 691 0 230-47 404-140 522S790 20 615 20C231 20 72-262 72-679c0-419 158-691 543-691zM797-330c77-133 78-564 0-695-44-73-101-113-182-113s-139 40-183 114c-79 133-78 560 0 694 45 77 102 118 183 118s138-41 182-118" id="dn"/><g id="ag"><use transform="matrix(0.010959201388888886,0,0,0.010959201388888886,0,0)" xlink:href="#db"/><use transform="matrix(0.010959201388888886,0,0,0.010959201388888886,13.468858506944441,0)" xlink:href="#de"/><use transform="matrix(0.010959201388888886,0,0,0.010959201388888886,26.937717013888882,0)" xlink:href="#dm"/><use transform="matrix(0.010959201388888886,0,0,0.010959201388888886,40.40657552083332,0)" xlink:href="#bN"/><use transform="matrix(0.010959201388888886,0,0,0.010959201388888886,53.875434027777764,0)" xlink:href="#dn"/></g><path d="M305-1169c27 366 9 780 14 1169H99v-1349h347c49 189 108 371 150 564 12 56 15 107 23 166 33-270 117-487 176-730h335V0H908c5-390-13-801 16-1169-52 285-130 541-199 809H507c-70-267-148-525-202-809" id="do"/><g id="ah"><use transform="matrix(0.010959201388888886,0,0,0.010959201388888886,0,0)" xlink:href="#do"/><use transform="matrix(0.010959201388888886,0,0,0.010959201388888886,13.468858506944441,0)" xlink:href="#dn"/><use transform="matrix(0.010959201388888886,0,0,0.010959201388888886,26.937717013888882,0)" xlink:href="#dm"/><use transform="matrix(0.010959201388888886,0,0,0.010959201388888886,40.40657552083332,0)" xlink:href="#bM"/><use transform="matrix(0.010959201388888886,0,0,0.010959201388888886,53.875434027777764,0)" xlink:href="#dd"/><use transform="matrix(0.010959201388888886,0,0,0.010959201388888886,67.3442925347222,0)" xlink:href="#dc"/></g><path d="M912-211c-10-84-18-177-18-274v-864h172V0H836L316-1130c7 79 16 167 16 254V0H162v-1349h222" id="dp"/><g id="ai"><use transform="matrix(0.010959201388888886,0,0,0.010959201388888886,0,0)" xlink:href="#cn"/><use transform="matrix(0.010959201388888886,0,0,0.010959201388888886,13.468858506944441,0)" xlink:href="#aO"/><use transform="matrix(0.010959201388888886,0,0,0.010959201388888886,26.937717013888882,0)" xlink:href="#dp"/></g><g id="aj"><use transform="matrix(0.015190972222222224,0,0,0.015190972222222224,0,0)" xlink:href="#bT"/><use transform="matrix(0.015190972222222224,0,0,0.015190972222222224,18.669704861111114,0)" xlink:href="#bB"/><use transform="matrix(0.015190972222222224,0,0,0.015190972222222224,37.33940972222223,0)" xlink:href="#bv"/></g><g id="ak"><use transform="matrix(0.016276041666666668,0,0,0.016276041666666668,0,0)" xlink:href="#aR"/><use transform="matrix(0.016276041666666668,0,0,0.016276041666666668,20.003255208333336,0)" xlink:href="#ch"/><use transform="matrix(0.016276041666666668,0,0,0.016276041666666668,40.00651041666667,0)" xlink:href="#cn"/></g><path d="M473-1349c438-1 655 221 652 661C1122-268 945-8 532 0H162v-1349h311zm42 1193c308-4 416-205 418-532 2-330-131-509-459-505H353v1037h162" id="dq"/><g id="al"><use transform="matrix(0.016276041666666668,0,0,0.016276041666666668,0,0)" xlink:href="#cn"/><use transform="matrix(0.016276041666666668,0,0,0.016276041666666668,20.003255208333336,0)" xlink:href="#aR"/><use transform="matrix(0.016276041666666668,0,0,0.016276041666666668,40.00651041666667,0)" xlink:href="#cK"/><use transform="matrix(0.016276041666666668,0,0,0.016276041666666668,60.00976562500001,0)" xlink:href="#cK"/><use transform="matrix(0.016276041666666668,0,0,0.016276041666666668,80.01302083333334,0)" xlink:href="#aO"/><use transform="matrix(0.016276041666666668,0,0,0.016276041666666668,100.01627604166669,0)" xlink:href="#dp"/><use transform="matrix(0.016276041666666668,0,0,0.016276041666666668,120.01953125000003,0)" xlink:href="#dq"/></g><g id="am"><use transform="matrix(0.016276041666666668,0,0,0.016276041666666668,0,0)" xlink:href="#aN"/><use transform="matrix(0.016276041666666668,0,0,0.016276041666666668,20.003255208333336,0)" xlink:href="#aL"/><use transform="matrix(0.016276041666666668,0,0,0.016276041666666668,40.00651041666667,0)" xlink:href="#aR"/><use transform="matrix(0.016276041666666668,0,0,0.016276041666666668,60.00976562500001,0)" xlink:href="#cn"/><use transform="matrix(0.016276041666666668,0,0,0.016276041666666668,80.01302083333334,0)" xlink:href="#aT"/><use transform="matrix(0.016276041666666668,0,0,0.016276041666666668,100.01627604166669,0)" xlink:href="#cg"/><use transform="matrix(0.016276041666666668,0,0,0.016276041666666668,120.01953125000003,0)" xlink:href="#cg"/></g><path fill="#fff" d="M1246-1043c0 260-154 397-360 462L1122 0H790L600-515H427L327 0H32l262-1349c391 21 952-105 952 306zM648-744c184 0 294-72 294-239 0-169-225-132-397-137l-73 376h176" id="dr"/><path fill="#fff" d="M814 0L607-493 207 0h-312l597-711-294-638h312l180 430 345-430h310L793-711 1124 0H814" id="ds"/><g id="an"><use transform="matrix(0.01953125,0,0,0.01953125,0,0)" xlink:href="#dr"/><use transform="matrix(0.01953125,0,0,0.01953125,24.00390625,0)" xlink:href="#ds"/><path fill="#fff" d="M-2 7.32h52v4H-2z"/></g><path fill="#fff" d="M875-1121L657 0H362l218-1121H174l44-228h1107l-44 228H875" id="dt"/><g id="ao"><use transform="matrix(0.01953125,0,0,0.01953125,0,0)" xlink:href="#dt"/><use transform="matrix(0.01953125,0,0,0.01953125,24.00390625,0)" xlink:href="#ds"/><path fill="#fff" d="M-2 7.32h52v4H-2z"/></g><path d="M458-878c-79 209-176 742 202 654 58-14 109-38 149-66l46-235H581l42-218h544l-108 558C918-88 759 17 526 20 188 24 49-217 90-567c42-359 167-642 450-758 114-47 306-64 429-18 138 52 203 176 219 348l-284 54c-9-113-43-197-147-197-178 0-246 122-299 260" id="du"/><path d="M32 0l262-1349h968l-44 228H545l-63 324h612l-44 228H438l-67 341h714L1041 0H32" id="dv"/><path d="M643 0L455-1010C432-640 346-334 287 0H30l262-1349h337L821-312c26-378 114-693 173-1037h257L989 0H643" id="dw"/><path d="M1246-1043c0 260-154 397-360 462L1122 0H790L600-515H427L327 0H32l262-1349c391 21 952-105 952 306zM648-744c184 0 294-72 294-239 0-169-225-132-397-137l-73 376h176" id="dx"/><path d="M1124 0H830l-28-330H346L190 0h-295l705-1349h344zM737-1167c-87 211-191 412-286 615h332c-17-203-41-400-46-615" id="dy"/><path d="M875-1121L657 0H362l218-1121H174l44-228h1107l-44 228H875" id="dz"/><g id="ap"><use transform="matrix(0.010959201388888886,0,0,0.010959201388888886,0,0)" xlink:href="#du"/><use transform="matrix(0.010959201388888886,0,0,0.010959201388888886,13.468858506944441,0)" xlink:href="#dv"/><use transform="matrix(0.010959201388888886,0,0,0.010959201388888886,26.937717013888882,0)" xlink:href="#dw"/><use transform="matrix(0.010959201388888886,0,0,0.010959201388888886,40.40657552083332,0)" xlink:href="#dv"/><use transform="matrix(0.010959201388888886,0,0,0.010959201388888886,53.875434027777764,0)" xlink:href="#dx"/><use transform="matrix(0.010959201388888886,0,0,0.010959201388888886,67.3442925347222,0)" xlink:href="#dy"/><use transform="matrix(0.010959201388888886,0,0,0.010959201388888886,80.81315104166664,0)" xlink:href="#dz"/><use transform="matrix(0.010959201388888886,0,0,0.010959201388888886,94.28200954861109,0)" xlink:href="#dv"/><use transform="matrix(0.010959201388888886,0,0,0.010959201388888886,107.75086805555553,0)" xlink:href="#cH"/></g><g id="aq"><use transform="matrix(0.010959201388888886,0,0,0.010959201388888886,0,0)" xlink:href="#cv"/><use transform="matrix(0.010959201388888886,0,0,0.010959201388888886,13.468858506944441,0)" xlink:href="#cH"/><use transform="matrix(0.010959201388888886,0,0,0.010959201388888886,26.937717013888882,0)" xlink:href="#cB"/></g><path d="M776 0L561-557 407-415 326 0H31l262-1349h295L472-750l552-599h343L795-770 1124 0H776" id="dA"/><g id="ar"><use transform="matrix(0.010959201388888886,0,0,0.010959201388888886,0,0)" xlink:href="#cB"/><use transform="matrix(0.010959201388888886,0,0,0.010959201388888886,13.468858506944441,0)" xlink:href="#dy"/><use transform="matrix(0.010959201388888886,0,0,0.010959201388888886,26.937717013888882,0)" xlink:href="#cv"/><use transform="matrix(0.010959201388888886,0,0,0.010959201388888886,40.40657552083332,0)" xlink:href="#dA"/><use transform="matrix(0.010959201388888886,0,0,0.010959201388888886,53.875434027777764,0)" xlink:href="#dv"/><use transform="matrix(0.010959201388888886,0,0,0.010959201388888886,67.3442925347222,0)" xlink:href="#dz"/></g></defs></g></svg>